<?xml version="1.0" standalone="no"?>
<!DOCTYPE svg PUBLIC "-//W3C//DTD SVG 1.1//EN" "http://www.w3.org/Graphics/SVG/1.1/DTD/svg11.dtd" >
<svg xmlns="http://www.w3.org/2000/svg">
<metadata>Generated by IcoMoon</metadata>
<defs>
<font id="icomoon" horiz-adv-x="1024">
<font-face units-per-em="1024" ascent="960" descent="-64" />
<missing-glyph horiz-adv-x="1024" />
<glyph unicode="&#x20;" horiz-adv-x="512" d="" />
<glyph unicode="&#xe900;" glyph-name="arrow-down1" horiz-adv-x="1536" d="M1537.28 856.32l-768-919.040-769.28 919.040 85.76 102.4 683.52-816.64 683.52 816.64z" />
<glyph unicode="&#xe901;" glyph-name="plus1" horiz-adv-x="1026" d="M1025.924 384.842h-448.842v-448.2h-128.24v448.2h-448.842v127.599h448.842v448.2h128.24v-448.2h448.842v-127.599z" />
<glyph unicode="&#xe902;" glyph-name="star1" horiz-adv-x="1109" d="M235.593 496.274l219.429 29.989 99.035 192.366 97.353-193.097 219.429-32.183-159.525-149.211 36.571-212.114-196.023 100.937-196.754-99.474 38.4 212.114zM1107.675 567.223l-382.61 55.589-169.765 336.457-172.69-335.726-383.049-51.931 275.968-263.314-24.649-135.314-42.423-234.057 144.018 73.143 199.168 100.206 341.723-175.543-63.854 369.371z" />
<glyph unicode="&#xe903;" glyph-name="facebook1" horiz-adv-x="542" d="M360.809 624.489v88.546c-0.024 1.064-0.037 2.318-0.037 3.575 0 9.584 0.78 18.985 2.28 28.144l-0.135-0.999c1.711 8.062 5.050 15.152 9.671 21.211l-0.094-0.128c5.723 7.616 14.178 12.911 23.886 14.43l0.209 0.027c11.618 2.734 24.958 4.302 38.664 4.302 1.93 0 3.853-0.031 5.768-0.093l-0.279 0.007h100.232v176.489h-160.226c-7.916 0.783-17.11 1.23-26.409 1.23-65.574 0-125.958-22.218-174.036-59.538l0.645 0.481c-37.928-40.446-61.226-95.009-61.226-155.013 0-5.65 0.207-11.251 0.612-16.797l-0.044 0.742v-106.616h-119.989v-176.489h119.989v-512h240.941v512h160.226l21.203 176.489h-181.85z" />
<glyph unicode="&#xe904;" glyph-name="minus" horiz-adv-x="8192" d="M8192 960v-1024h-8192v1024z" />
<glyph unicode="&#xe905;" glyph-name="more-arrow" d="M512 960c-282.768 0-512-229.232-512-512s229.232-512 512-512c282.768 0 512 229.232 512 512s-229.232 512-512 512zM512 913.461c257.062 0 465.461-208.399 465.461-465.461s-208.399-465.461-465.461-465.461-465.461 208.399-465.461 465.461 208.399 465.461 465.461 465.461zM740.169 434.208l0.251-0.251-164.562-164.56c-4.211-4.212-10.030-6.817-16.456-6.817-12.853 0-23.272 10.419-23.272 23.272 0 6.426 2.605 12.244 6.816 16.455l122.421 122.419h-339.547c-12.854 0-23.274 10.42-23.274 23.274s10.42 23.274 23.274 23.274h338.719l-121.597 121.599c-4.211 4.211-6.816 10.029-6.816 16.455 0 12.853 10.419 23.272 23.272 23.272 6.427 0 12.245-2.605 16.456-6.817l158.299-158.297c6.403-4.202 10.572-11.348 10.572-19.468 0-5.201-1.71-10.002-4.599-13.871z" />
<glyph unicode="&#xe906;" glyph-name="more" d="M512 960c-282.77 0-512-229.23-512-512s229.23-512 512-512c282.77 0 512 229.23 512 512s-229.23 512-512 512zM512 913.455c257.063 0 465.455-208.391 465.455-465.455s-208.391-465.455-465.455-465.455c-257.063 0-465.455 208.391-465.455 465.455s208.391 465.455 465.455 465.455zM325.818 494.545c25.706 0 46.545-20.839 46.545-46.545s-20.839-46.545-46.545-46.545c-25.706 0-46.545 20.839-46.545 46.545s20.839 46.545 46.545 46.545zM512 494.545c25.706 0 46.545-20.839 46.545-46.545s-20.839-46.545-46.545-46.545c-25.706 0-46.545 20.839-46.545 46.545s20.839 46.545 46.545 46.545zM698.182 494.545c25.706 0 46.545-20.839 46.545-46.545s-20.839-46.545-46.545-46.545c-25.706 0-46.545 20.839-46.545 46.545s20.839 46.545 46.545 46.545z" />
<glyph unicode="&#xe907;" glyph-name="plus2" d="M512-64c-282.77 0-512 229.23-512 512s229.23 512 512 512c282.77 0 512-229.23 512-512s-229.23-512-512-512zM735.549 455.211c0 7.965-6.457 14.423-14.423 14.423h-187.493v187.493c0 7.965-6.457 14.423-14.423 14.423h-14.423c-7.965 0-14.423-6.457-14.423-14.423v-187.493h-187.493c-7.965 0-14.423-6.457-14.423-14.423v-14.423c0-7.965 6.457-14.423 14.423-14.423h187.493v-187.493c0-7.965 6.457-14.423 14.423-14.423h14.423c7.965 0 14.423 6.457 14.423 14.423v187.493h187.493c7.965 0 14.423 6.457 14.423 14.423v14.423z" />
<glyph unicode="&#xe908;" glyph-name="slide-next" horiz-adv-x="559" d="M0 913.455l93.091 46.545 465.455-512-512-512-46.545 93.091 418.909 418.909z" />
<glyph unicode="&#xe909;" glyph-name="slide-prev" horiz-adv-x="559" d="M558.545-17.455l-93.091-46.545-465.455 512 512 512 46.545-93.091-418.909-418.909z" />
<glyph unicode="&#xe90a;" glyph-name="arrow-down2" horiz-adv-x="1071" d="M1014.717 724.891c-27.323 28.76-71.603 28.76-98.881 0l-379.866-400.587-379.832 400.587c-27.323 28.76-71.603 28.76-98.892 0-27.323-28.76-27.323-75.515 0-104.275l429.301-452.667c13.639-14.323 31.531-21.541 49.412-21.541s35.773 7.218 49.412 21.541l429.347 452.564c27.277 28.863 27.277 75.606 0 104.377z" />
<glyph unicode="&#xe90b;" glyph-name="arrow-left2" horiz-adv-x="1071" d="M789.484 76.401l-365.646 371.564 365.623 371.599c26.285 26.684 26.285 70.041 0 96.714-26.263 26.719-68.878 26.719-95.175 0l-413.233-419.939c-13.148-13.342-19.705-30.858-19.705-48.374 0-17.482 6.591-34.998 19.717-48.306l413.233-419.984c26.297-26.684 68.889-26.684 95.175 0 26.297 26.719 26.297 69.995 0.011 96.726z" />
<glyph unicode="&#xe90c;" glyph-name="twitter1" horiz-adv-x="1216" d="M1181.76 941.44c-45.522-28.639-98.563-50.578-155.224-62.776l-3.24-0.584c-44.76 50.176-109.525 81.686-181.654 81.92h-0.042c-138.409-2.532-249.639-115.328-249.639-254.104 0-1.567 0.014-3.13 0.042-4.691l-0.003 0.235c0-0.12 0-0.262 0-0.404 0-20.724 2.332-40.903 6.748-60.29l-0.347 1.813c-209.351 12.268-392.559 114.631-512.885 268.535l-1.163 1.545c-21.224-37.254-33.735-81.855-33.735-129.379 0-88.536 43.425-166.93 110.137-215.045l0.782-0.537c-41.83 1.271-80.613 13.236-114.035 33.236l1.075-0.596v-3.2c-0.011-0.902-0.018-1.968-0.018-3.035 0-121.861 84.639-223.954 198.337-250.7l1.745-0.346c-19.698-5.667-42.326-8.937-65.715-8.96h-0.013c-16.739 0.2-32.961 1.822-48.723 4.75l1.747-0.27c31.088-102.166 122.986-175.831 232.579-179.191l0.381-0.009c-83.379-68.917-191.374-110.72-309.133-110.72-0.221 0-0.441 0-0.661 0h0.034c-0.114 0-0.249 0-0.384 0-20.828 0-41.33 1.396-61.417 4.098l2.346-0.258c107.299-72.921 239.699-116.439 382.262-116.48h0.010c458.752 0 709.568 394.24 709.568 736l-0.768 33.28c49.219 37.057 90.608 81.36 123.395 131.772l1.213 1.988c-41.632-19.632-89.937-34.026-140.676-40.692l-2.492-0.268c51.98 32.987 90.777 82.744 109.078 141.535l0.49 1.825z" />
<glyph unicode="&#xe90d;" glyph-name="arrow-right2" horiz-adv-x="1071" d="M789.040 498.929l-434.98 440.077c-27.677 27.984-72.504 27.984-100.169 0-27.631-28.042-27.631-73.394 0-101.378l384.85-389.354-384.85-389.411c-27.677-27.927-27.677-73.314 0-101.31 27.642-27.973 72.493-27.973 100.169 0l434.98 440.077c13.798 13.935 20.72 32.284 20.72 50.644 0 18.291-6.876 36.663-20.72 50.655z" />
<glyph unicode="&#xe90e;" glyph-name="arrows1" horiz-adv-x="1071" d="M144.769 917.544c-23.583 26.833-61.716 26.833-85.311 0-23.48-26.707-23.48-70.224 0-96.942l327.467-372.602-327.467-372.602c-23.48-26.821-23.48-70.235 0-96.942 23.594-26.821 61.728-26.821 85.311 0l369.911 421.067c11.746 13.365 17.664 30.915 17.664 48.477s-5.816 35.112-17.664 48.477l-369.911 421.067zM1011.045 496.477l-369.899 421.067c-23.583 26.833-61.728 26.833-85.208 0-23.594-26.707-23.594-70.224 0-96.942l327.352-372.602-327.467-372.602c-23.48-26.821-23.48-70.235 0-96.942 23.594-26.821 61.728-26.821 85.208 0l370.013 421.067c11.746 13.365 17.676 30.915 17.676 48.477s-5.827 35.112-17.676 48.477z" />
<glyph unicode="&#xe90f;" glyph-name="fechar" d="M1023.819-0.091l-63.819-64.045-448.091 448.091-448.091-448.091-63.819 64.045 448.091 448.091-448.091 448.091 63.819 64.045 448.091-448.091 448.091 448.091 63.819-64.045-448.091-448.091z" />
<glyph unicode="&#xe910;" glyph-name="arrow-left1" horiz-adv-x="555" d="M554.586-20.51l-468.51 468.51 468.51 468.51-42.586 42.586-511.096-511.096 511.096-511.096z" />
<glyph unicode="&#xe911;" glyph-name="clip1" horiz-adv-x="1084" d="M547.418-64c-12.348 0-24.696 4.819-34.093 14.456-18.793 19.155-18.733 50.236 0.12 69.331 0 0 419.96 425.683 419.96 425.683 14.999 25.419 91.317 168.117-15.36 276.179-64.030 64.934-131.674 93.304-201.246 84.269-42.225-5.481-72.584-23.552-80.715-28.853 0 0-530.854-538.082-530.854-538.082s-2.409-1.385-2.409-1.385c-2.229-1.928-4.457-5-4.759-6.264 0.12-1.144 2.349-7.108 11.324-16.264 60.536-61.38 161.069-153.6 162.033-154.504 0 0 4.156-3.855 4.156-3.855s1.506-2.289 1.506-2.289c2.47-2.65 6.867-5.722 9.156-5.783 0-0.060 0.060-0.060 0.060-0.060 1.807 0 7.168 2.168 15.24 10.3 0 0 481.641 488.207 481.641 488.207 17.95 19.456 18.191 39.032 0 57.404-16.143 16.384-36.021 31.262-66.861 0 0 0-385.325-390.566-385.325-390.566-18.854-19.095-49.393-19.034-68.186 0.181-18.733 19.155-18.673 50.236 0.181 69.331 0 0 385.325 390.566 385.325 390.566 61.621 62.464 141.252 62.464 202.872 0 70.716-71.68 38.852-156.672 0.181-196.247 0 0-481.882-488.388-481.882-488.388-34.093-34.635-67.584-40.117-89.63-38.671-39.213 2.65-65.717 28.25-75.174 39.032-15.782 14.517-105.472 97.22-163.298 155.829-36.322 36.864-41.382 72.041-39.213 95.112 3.674 39.695 30.118 65.114 41.502 74.33 0 0 530.071 537.299 530.071 537.299s2.831 2.108 2.831 2.108c68.789 51.923 242.929 105.592 409.48-63.187 71.439-72.463 98.184-166.008 77.342-270.637-15.059-75.475-50.357-130.59-51.863-132.939 0 0-2.711-4.156-2.711-4.156s-427.369-433.212-427.369-433.212c-9.397-9.517-21.685-14.276-34.033-14.276z" />
<glyph unicode="&#xe912;" glyph-name="clock-outline1" d="M512-64c-282.304 0-512 229.696-512 512s229.696 512 512 512c282.304 0 512-229.696 512-512s-229.696-512-512-512zM512 851.072c-222.272 0-403.072-180.8-403.072-403.072s180.8-403.072 403.072-403.072c222.272 0 403.072 180.8 403.072 403.072s-180.8 403.072-403.072 403.072zM778.816 379.52c0 0-272.192 0-272.192 0-23.296 0-42.176 18.88-42.176 42.112 0 0 0 318.848 0 318.848 0 23.296 18.88 42.112 42.176 42.112 23.232 0 42.112-18.816 42.112-42.112 0 0 0-276.672 0-276.672s230.080 0 230.080 0c23.296 0 42.176-18.88 42.176-42.176 0-23.232-18.88-42.112-42.176-42.112z" />
<glyph unicode="&#xe913;" glyph-name="arrow-right1" horiz-adv-x="555" d="M0.602-20.51l468.631 468.51-468.631 468.51 42.767 42.586 511.398-511.096-42.767-42.586-468.631-468.51z" />
<glyph unicode="&#xe914;" glyph-name="close1" horiz-adv-x="1071" d="M1013.543 89.322l-358.724 358.724 358.644 358.633c33.025 33.025 33.105 86.519 0.080 119.544s-86.611 33.025-119.624 0l-358.644-358.644-358.644 358.644c-33.025 33.025-86.611 33.025-119.544 0-33.105-33.013-33.025-86.519-0.080-119.544l358.724-358.724-358.724-358.633c-33.025-33.025-32.945-86.531 0-119.544 33.025-33.025 86.611-33.025 119.544 0l358.724 358.644 358.644-358.644c33.025-33.025 86.611-33.025 119.624 0 32.945 33.013 33.025 86.508 0 119.544z" />
<glyph unicode="&#xe915;" glyph-name="search1" d="M1017.173-25.031l-285.582 285.81c67.411 74.522 108.664 173.813 108.664 282.74 0 233.159-189.013 422.172-422.172 422.172s-422.172-189.013-422.172-422.172c0-233.159 189.013-422.172 422.172-422.172 108.143 0 206.79 40.662 281.484 107.531l285.18-286.164c4.117-4.115 9.804-6.66 16.085-6.66 0.145 0 0.29 0.001 0.434 0.004 12.505 0.054 22.638 10.221 22.638 22.755 0 6.317-2.574 12.032-6.73 16.155zM419.271 167.026c-0.084 0-0.183 0-0.283 0-206.391 0-373.703 167.313-373.703 373.703s167.313 373.703 373.703 373.703c206.391 0 373.703-167.313 373.703-373.703 0-103.195-41.828-196.621-109.456-264.248-67.22-67.611-160.293-109.455-263.139-109.455-0.291 0-0.581 0-0.871 0.001z" />
<glyph unicode="&#xe916;" glyph-name="audio1" d="M401.344 760.064l-183.552-117.376h-167.616c-27.648 0-50.304-19.328-50.304-42.944v-299.136c0-23.552 22.656-42.944 50.304-42.944h167.616l183.552-117.312c33.472-21.44 80.448-1.408 80.448 34.304v550.976c0.064 35.84-47.744 55.872-80.448 34.432zM617.984 645.12c-15.68-15.872-15.68-42.368 0-58.304 75.584-76.544 75.584-200.832 0-277.376-15.68-15.872-15.68-42.368 0-58.24 8.128-8.32 18.624-11.84 28.48-11.84 9.792 0 20.864 4.096 28.416 12.352 108.032 107.776 108.032 284.416 0.576 393.344-15.616 16-41.792 16-57.472 0.064zM874.56 763.52c-19.072 17.984-51.264 17.984-71.808 0.64-19.776-17.344-19.776-46.272 0-63.616 76.928-67.456 119.36-156.672 119.36-252.288 0-95.744-42.432-184.96-119.36-252.352-19.776-17.344-19.776-46.208 0-63.552 10.304-9.024 23.488-13.44 35.968-13.44 13.184 0 26.368 4.416 35.904 12.8 95.936 84.096 149.376 196.416 149.376 315.904-0.064 119.424-52.736 231.168-149.44 315.904z" />
<glyph unicode="&#xe917;" glyph-name="badge-alone1" horiz-adv-x="878" d="M704.805 304.494c0 0-151.406-10.752-151.406-10.752s-114.469-101.815-114.469-101.815c0 0-114.542 101.815-114.542 101.815s-151.552 10.752-151.552 10.752c0 0-10.459 154.551-10.459 154.551s-99.694 116.882-99.694 116.882c0 0 99.694 116.882 99.694 116.882s10.459 154.697 10.459 154.697c0 0 151.479 10.679 151.479 10.679s114.542 101.815 114.542 101.815c0 0 114.542-101.815 114.542-101.815s151.406-10.679 151.406-10.679c0 0 10.533-154.697 10.533-154.697s99.694-116.882 99.694-116.882c0 0-99.694-116.809-99.694-116.809s-10.533-154.624-10.533-154.624zM438.857 768c-103.863 0-188.050-86.016-188.050-192s84.187-192 188.050-192c103.863 0 188.050 85.943 188.050 192 0 105.984-84.187 192-188.050 192zM282.331 245.029c0 0 93.842-69.851 93.842-69.851s-98.816-239.177-98.816-239.177c0 0-100.571 134.144-100.571 134.144s-176.786-50.395-176.786-50.395c0 0 97.573 236.251 97.573 236.251s184.759-10.971 184.759-10.971zM780.142 256c0 0 97.573-236.251 97.573-236.251s-176.859 50.395-176.859 50.395c0 0-100.498-134.144-100.498-134.144s-98.816 239.177-98.816 239.177c0 0 93.915 69.851 93.915 69.851s184.686 10.971 184.686 10.971z" />
<glyph unicode="&#xe918;" glyph-name="big-arrow-right1" horiz-adv-x="1583" d="M1529.018 493.242c0 0-440.785 439.855-440.785 439.855-26.903 26.903-70.563 26.903-97.466 0-26.903-26.81-26.903-70.284 0-97.187 0 0 323.212-322.56 323.212-322.56s-1177.135 0-1177.135 0c-38.074 0-68.887-30.72-68.887-68.701s30.813-68.794 68.887-68.794c0 0 1177.135 0 1177.135 0s-323.212-322.56-323.212-322.56c-26.903-26.81-26.903-70.377 0-97.187 13.498-13.405 31.092-20.108 48.78-20.108 17.594 0 35.188 6.703 48.687 20.108 0 0 440.785 439.948 440.785 439.948 26.903 26.81 26.903 70.284 0 97.187z" />
<glyph unicode="&#xe919;" glyph-name="boy1" horiz-adv-x="878" d="M846.351 450.224c16.881-16.618 31.364-44.471 30.369-91.077-0.702-34.26-9.245-68.286-14.336-88.591-11.44-45.495-39.907-84.348-76.215-105.355-0.351-1.112-0.731-2.253-1.112-3.365-22.674-67.672-53.745-160.358-97.66-212.758 0 0-10.942-13.078-10.942-13.078s-460.946 0-460.946 0c0 0-10.971 13.136-10.971 13.136-51.493 61.791-83.822 160.534-101.171 213.548-0.936 2.896-1.843 5.617-2.692 8.221-35.226 18.461-64.483 57.022-75.659 101.727-25.015 102.078-5.266 155.619 21.855 183.647 0 0-1.229 40.726-1.229 40.726 0 16.325-0.41 31.744-0.819 46.636 0 0-0.146 6.144-0.146 6.144-1.902 66.823 6.554 118.696 31.92 173.495 43.564 94.208 265.333 105.794 265.333 105.794 248.452 15.272 334.292 130.926 334.292 130.926s1.872-146.695 6.817-163.957c5.764-2.779 28.877-18.812 34.202-21.767 10.679-5.91 20.509-12.142 29.52-18.637 95.671-68.93 102.254-169.282 99.591-260.593 0 0 0-44.822 0-44.822zM172.851 185.242c14.57-44.5 40.638-124.226 77.853-176.508 0 0 390.407 0 390.407 0 30.808 45.29 56.847 122.997 74.635 176.128 2.077 6.232 4.067 12.171 5.998 17.73 0 0 0.995 2.955 0.995 2.955s-224.080 0-224.080 0c0 0-17.115 73.728-17.115 73.728s-72.733 0-72.733 0c0 0-17.086-73.728-17.086-73.728s-225.631 0-225.631 0c1.989-5.705 4.242-12.61 6.758-20.304zM134.992 237.495c0 0 231.161 0 231.161 0s17.115 73.728 17.115 73.728c0 0 123.816 0 123.816 0s17.115-73.728 17.115-73.728c0 0 231.131 0 231.131 0s0 208.165 0 208.165c0 0-620.339 0-620.339 0s0-208.165 0-208.165zM117.877 545.602c0.41-15.214 0.819-30.954 0.848-48.011 0 0 0.585-19.983 0.585-19.983s432.187 0 432.187 0c0 0 4.476 83.061 4.476 83.061s-210.096-92.57-438.096-15.067zM772.447 558.855c0 0-45.846 0-45.846 0-73.787 0-127.21-48.391-154.975-81.247 0 0 201.669 0 201.669 0s0 19.017 0 19.017c0.673 22.528 0.527 43.213-0.848 62.23zM537.776 410.902c0 0 194.853 0 194.853 0s0-137.889 0-137.889c0 0-194.853 0-194.853 0s0 137.889 0 137.889zM570.192 305.254c0 0 130.048 0 130.048 0s0 73.435 0 73.435c0 0-130.048 0-130.048 0s0-73.435 0-73.435zM157.696 410.902c0 0 194.853 0 194.853 0s0-137.889 0-137.889c0 0-194.853 0-194.853 0s0 137.889 0 137.889z" />
<glyph unicode="&#xe91a;" glyph-name="building1" horiz-adv-x="1071" d="M659.266 571.935v248.040c0 68.422-55.513 123.992-123.992 123.992h-371.975c-68.479 0-123.992-55.57-123.992-123.992v-867.941h991.933v433.976l-371.975 185.925zM298.992 64.507c0-27.87-22.214-50.415-49.663-50.415h-99.291c-27.426 0-49.64 22.545-49.64 50.415v100.842c0 27.813 22.203 50.37 49.64 50.37h99.291c27.449 0 49.663-22.545 49.663-50.37v-100.842zM298.992 367.034c0-27.87-22.214-50.484-49.663-50.484h-99.291c-27.426 0-49.64 22.602-49.64 50.484v100.842c0 27.87 22.203 50.415 49.64 50.415h99.291c27.449 0 49.663-22.545 49.663-50.415v-100.842zM298.992 669.504c0-27.813-22.214-50.358-49.663-50.358h-99.291c-27.426 0-49.64 22.545-49.64 50.358v100.842c0 27.939 22.203 50.484 49.64 50.484h99.291c0 0 49.663-22.545 49.663-50.484v-100.842zM596.843 64.507c0-27.87-22.214-50.415-49.64-50.415h-99.303c-27.449 0-49.663 22.545-49.663 50.415v100.842c0 27.813 22.214 50.37 49.663 50.37h99.303c27.426 0 49.64-22.545 49.64-50.37v-100.842zM596.843 367.034c0-27.87-22.214-50.484-49.64-50.484h-99.303c-27.449 0-49.663 22.602-49.663 50.484v100.842c0 27.87 22.214 50.415 49.663 50.415h99.303c27.426 0 49.64-22.545 49.64-50.415v-100.842zM596.843 669.504c0-27.813-22.214-50.358-49.64-50.358h-99.303c-27.449 0-49.663 22.545-49.663 50.358v100.842c0 27.939 22.214 50.484 49.663 50.484h99.303c27.426 0 49.64-22.545 49.64-50.484v-100.842zM907.25 14.024h-185.982v216.965c0 51.328 41.669 93.019 92.997 93.019s92.985-41.692 92.985-93.019v-216.965z" />
<glyph unicode="&#xe91b;" glyph-name="calendar1" horiz-adv-x="960" d="M872-64c0 0-784 0-784 0-48.576 0-88 41.6-88 92.288 0 0 0 725.952 0 725.952 0 49.792 38.528 90.24 85.44 91.712 0 0 0-123.84 0-123.84 0-56 43.584-101.12 97.216-101.12 0 0 61.376 0 61.376 0 53.632 0 97.792 45.12 97.792 101.12 0 0 0 124.288 0 124.288s276.416 0 276.416 0c0 0 0-124.288 0-124.288 0-56 44.096-101.12 97.792-101.12 0 0 61.312 0 61.312 0 53.632 0 97.216 45.12 97.216 101.12 0 0 0 123.84 0 123.84 46.912-1.472 85.44-41.92 85.44-91.712 0 0 0-725.952 0-725.952 0-50.56-39.488-92.288-88-92.288zM846.080 448.512c0 21.888-17.024 39.68-38.080 39.68 0 0-657.664 0-657.664 0-21.056 0-38.080-17.792-38.080-39.68 0 0 0-374.976 0-374.976 0-21.888 17.024-39.68 38.080-39.68 0 0 657.664 0 657.664 0 21.056 0 38.080 17.792 38.080 39.68 0 0 0 374.976 0 374.976zM713.216 88c0 0-77.76 0-77.76 0-12.288 0-22.272 10.432-22.272 23.232 0 0 0 81.088 0 81.088 0 12.864 9.984 23.232 22.272 23.232 0 0 77.76 0 77.76 0 12.288 0 22.272-10.368 22.272-23.232 0 0 0-81.088 0-81.088 0-12.8-9.984-23.232-22.272-23.232zM713.216 290.688c0 0-77.76 0-77.76 0-12.288 0-22.272 10.432-22.272 23.296 0 0 0 81.088 0 81.088 0 12.8 9.984 23.232 22.272 23.232 0 0 77.76 0 77.76 0 12.288 0 22.272-10.432 22.272-23.232 0 0 0-81.088 0-81.088 0-12.864-9.984-23.296-22.272-23.296zM518.912 88c0 0-77.76 0-77.76 0-12.352 0-22.272 10.432-22.272 23.232 0 0 0 81.088 0 81.088 0 12.864 9.92 23.232 22.272 23.232 0 0 77.76 0 77.76 0 12.288 0 22.272-10.368 22.272-23.232 0 0 0-81.088 0-81.088 0-12.8-9.984-23.232-22.272-23.232zM518.912 290.688c0 0-77.76 0-77.76 0-12.352 0-22.272 10.432-22.272 23.296 0 0 0 81.088 0 81.088 0 12.8 9.92 23.232 22.272 23.232 0 0 77.76 0 77.76 0 12.288 0 22.272-10.432 22.272-23.232 0 0 0-81.088 0-81.088 0-12.864-9.984-23.296-22.272-23.296zM324.544 88c0 0-77.76 0-77.76 0-12.288 0-22.272 10.432-22.272 23.232 0 0 0 81.088 0 81.088 0 12.864 9.984 23.232 22.272 23.232 0 0 77.76 0 77.76 0 12.288 0 22.272-10.368 22.272-23.232 0 0 0-81.088 0-81.088 0-12.8-9.984-23.232-22.272-23.232zM324.544 290.688c0 0-77.76 0-77.76 0-12.288 0-22.272 10.432-22.272 23.296 0 0 0 81.088 0 81.088 0 12.8 9.984 23.232 22.272 23.232 0 0 77.76 0 77.76 0 12.288 0 22.272-10.432 22.272-23.232 0 0 0-81.088 0-81.088 0-12.864-9.984-23.296-22.272-23.296zM775.872 687.424c0 0-60.672 0-60.672 0-18.368 0-33.28 15.552-33.28 34.752 0 0 0 203.072 0 203.072 0 19.2 14.912 34.752 33.28 34.752 0 0 60.672 0 60.672 0 18.432 0 33.344-15.552 33.344-34.752 0 0 0-203.072 0-203.072 0-19.2-14.912-34.752-33.344-34.752zM243.136 687.424c0 0-60.672 0-60.672 0-18.432 0-33.344 15.552-33.344 34.752 0 0 0 203.072 0 203.072 0 19.2 14.912 34.752 33.344 34.752 0 0 60.672 0 60.672 0 18.368 0 33.344-15.552 33.344-34.752 0 0 0-203.072 0-203.072 0-19.2-14.976-34.752-33.344-34.752z" />
<glyph unicode="&#xe91c;" glyph-name="calendar-check1" d="M930.144-64c0 0-836.288 0-836.288 0-51.84 0-93.856 41.6-93.856 92.32 0 0 0 725.952 0 725.952 0 49.76 41.12 90.24 91.136 91.744 0 0 0-123.904 0-123.904 0-56 46.464-101.12 103.712-101.12 0 0 65.408 0 65.408 0 57.248 0 104.32 45.12 104.32 101.12 0 0 0 124.32 0 124.32s294.848 0 294.848 0c0 0 0-124.32 0-124.32 0-56 47.072-101.12 104.32-101.12 0 0 65.408 0 65.408 0 57.248 0 103.712 45.12 103.712 101.12 0 0 0 123.904 0 123.904 50.016-1.504 91.136-41.984 91.136-91.744 0 0 0-725.952 0-725.952 0-50.592-42.112-92.32-93.856-92.32zM902.464 448.512c0 21.888-18.176 39.68-40.576 39.68 0 0-701.568 0-701.568 0-22.4 0-40.576-17.792-40.576-39.68 0 0 0-375.008 0-375.008 0-21.888 18.176-39.648 40.576-39.648 0 0 701.568 0 701.568 0 22.432 0 40.576 17.76 40.576 39.648 0 0 0 375.008 0 375.008zM462.080 104.448c-5.664-5.632-13.12-8.448-20.576-8.448s-14.88 2.816-20.576 8.448c0 0-121.568 120.192-121.568 120.192-11.36 11.232-11.36 29.472 0 40.704s29.792 11.232 41.152 0c0 0 100.992-99.872 100.992-99.872s241.984 239.296 241.984 239.296c11.36 11.232 29.792 11.232 41.152 0s11.36-29.44 0-40.704c0 0-262.56-259.616-262.56-259.616zM827.616 687.424c0 0-64.704 0-64.704 0-19.648 0-35.552 15.552-35.552 34.752 0 0 0 203.072 0 203.072 0 19.2 15.904 34.752 35.552 34.752 0 0 64.704 0 64.704 0 19.616 0 35.552-15.552 35.552-34.752 0 0 0-203.072 0-203.072 0-19.2-15.936-34.752-35.552-34.752zM259.328 687.424c0 0-64.704 0-64.704 0-19.648 0-35.584 15.552-35.584 34.752 0 0 0 203.072 0 203.072 0 19.2 15.936 34.752 35.584 34.752 0 0 64.704 0 64.704 0 19.616 0 35.552-15.552 35.552-34.752 0 0 0-203.072 0-203.072 0-19.2-15.936-34.752-35.552-34.752z" />
<glyph unicode="&#xe91d;" glyph-name="calendar-clock1" d="M128 800c0 0 0 128 0 128 0 17.664 14.336 32 32 32s32-14.336 32-32c0 0 0-128 0-128 0-17.664-14.336-32-32-32s-32 14.336-32 32zM672 768c17.664 0 32 14.336 32 32 0 0 0 128 0 128 0 17.664-14.336 32-32 32s-32-14.336-32-32c0 0 0-128 0-128 0-17.664 14.336-32 32-32zM1024 192c0-141.376-114.624-256-256-256s-256 114.624-256 256c0 141.376 114.624 256 256 256s256-114.624 256-256zM960 192c0 105.856-86.144 192-192 192s-192-86.144-192-192c0-105.856 86.144-192 192-192s192 86.144 192 192zM256 576c0 0-128 0-128 0s0-128 0-128c0 0 128 0 128 0s0 128 0 128zM128 256c0 0 128 0 128 0s0 128 0 128c0 0-128 0-128 0s0-128 0-128zM320 448c0 0 128 0 128 0s0 128 0 128c0 0-128 0-128 0s0-128 0-128zM320 256c0 0 128 0 128 0s0 128 0 128c0 0-128 0-128 0s0-128 0-128zM64 198.4c0 0 0 441.6 0 441.6s704 0 704 0c0 0 0-128 0-128s64 0 64 0c0 0 0 249.6 0 249.6 0 38.912-30.976 70.4-69.312 70.4 0 0-26.688 0-26.688 0s0-32 0-32c0-35.264-28.672-64-64-64s-64 28.736-64 64c0 0 0 32 0 32s-384 0-384 0c0 0 0-32 0-32 0-35.264-28.672-64-64-64s-64 28.736-64 64c0 0 0 32 0 32s-26.624 0-26.624 0c-38.336 0-69.376-31.488-69.376-70.4 0 0 0-563.2 0-563.2 0-38.784 31.040-70.4 69.376-70.4 0 0 378.624 0 378.624 0s0 64 0 64c0 0-378.624 0-378.624 0-2.944 0-5.376 3.008-5.376 6.4zM640 448c0 0 0 128 0 128s-128 0-128 0c0 0 0-128 0-128s128 0 128 0zM864 192c0 0-96 0-96 0s0 96 0 96c0 17.664-14.336 32-32 32s-32-14.336-32-32c0 0 0-128 0-128 0-17.664 14.336-32 32-32 0 0 128 0 128 0 17.664 0 32 14.336 32 32s-14.336 32-32 32z" />
<glyph unicode="&#xe91e;" glyph-name="cart1" horiz-adv-x="1320" d="M1292.8 696.212c0 0-68.77-471.309-68.77-471.309-4.904-33.603-33.9-58.53-68.069-58.53 0 0-588.126 0-588.126 0-24.387 0-46.969 12.854-59.311 33.738 0 0-278.582 471.336-278.582 471.336-0.054 0.081-0.081 0.162-0.135 0.243 0 0-57.021 96.472-57.021 96.472s-98.142 31.69-98.142 31.69c-36.136 11.668-55.889 50.203-44.167 86.070 11.749 35.894 50.553 55.539 86.69 43.87 0 0 122.988-39.693 122.988-39.693 15.98-5.174 29.534-15.98 38.050-30.397 0 0 50.445-85.369 50.445-85.369s896.081 0 896.081 0c19.968 0 38.939-8.623 52.008-23.606s18.944-34.87 16.061-54.515zM956.793 452.015c-18.432 18.297-48.317 18.297-66.749 0 0 0-7.141-7.087-7.141-7.087s0 164.029 0 164.029c0 25.896-21.127 46.861-47.212 46.861-26.058 0-47.212-20.965-47.212-46.861 0 0 0-164.002 0-164.002s-7.087 7.060-7.087 7.060c-18.432 18.297-48.344 18.297-66.776 0-18.432-18.324-18.432-47.993 0-66.291 0 0 87.714-87.094 87.714-87.094 9.216-9.162 21.288-13.743 33.361-13.743 12.099 0 24.172 4.581 33.388 13.743 0 0 87.714 87.067 87.714 87.067 18.432 18.324 18.432 47.993 0 66.317zM647.976 123.446c52.089 0 94.316-41.93 94.316-93.669s-42.227-93.669-94.316-93.669c-52.116 0-94.343 41.93-94.343 93.669s42.227 93.669 94.343 93.669zM1051.055 123.446c52.089 0 94.316-41.93 94.316-93.669s-42.227-93.669-94.316-93.669c-52.116 0-94.343 41.93-94.343 93.669s42.227 93.669 94.343 93.669z" />
<glyph unicode="&#xe91f;" glyph-name="caution1" horiz-adv-x="1317" d="M0-64c0 0 658.286 1024 658.286 1024s658.286-1024 658.286-1024c0 0-1316.571 0-1316.571 0zM731.429 740.571c0 0-146.286 0-146.286 0s0-512 0-512c0 0 146.286 0 146.286 0s0 512 0 512zM585.143 155.429c0 0 0-146.286 0-146.286s146.286 0 146.286 0c0 0 0 146.286 0 146.286s-146.286 0-146.286 0z" />
<glyph unicode="&#xe920;" glyph-name="chat1" d="M512 960c-282.688 0-512-200.576-512-448 0-141.376 75.072-267.328 192-349.44v-226.56l224.256 136.128c31.040-5.12 62.976-8.064 95.68-8.064 282.816 0 512 200.512 512 448 0.064 247.36-229.12 447.936-511.936 447.936zM698.688 288h-373.248c-20.608 0-37.376 28.608-37.376 64 0 35.328 16.768 64 37.376 64h373.248c20.672 0 37.312-28.672 37.312-64 0-35.392-16.704-64-37.312-64zM819.968 544h-615.872c-24.256 0-44.032 28.608-44.032 64 0 35.328 19.776 64 44.032 64h615.872c24.32 0 44.032-28.672 44.032-64 0-35.456-19.712-64-44.032-64z" />
<glyph unicode="&#xe921;" glyph-name="chat21" d="M511.94 930.003c-266.12 0-481.943-188.777-481.943-421.707 0-133.12 70.656-251.603 180.706-328.945 0 0 0-213.293 0-213.293s211.125 128.12 211.125 128.12c29.274-4.819 59.332-7.65 90.112-7.65 266.24 0 482.003 188.838 482.003 421.768s-215.763 421.707-482.003 421.707z" />
<glyph unicode="&#xe922;" glyph-name="checking1" horiz-adv-x="1365" d="M467.797-64c-22.699 0-45.397 8.96-62.72 26.965 0 0-370.432 384.683-370.432 384.683-34.645 35.925-34.645 94.208 0 130.219 34.645 35.925 90.795 35.925 125.44 0 0 0 307.712-319.573 307.712-319.573s737.451 765.696 737.451 765.696c34.645 36.011 90.88 36.011 125.44 0 34.645-35.925 34.645-94.208 0-130.219 0 0-800.171-830.805-800.171-830.805-17.323-18.005-40.021-26.965-62.72-26.965z" />
<glyph unicode="&#xe923;" glyph-name="flag1" horiz-adv-x="1071" d="M130.686 933.509v-971.030l396.721 226.556 412.458-226.556v971.030z" />
<glyph unicode="&#xe924;" glyph-name="folder1" horiz-adv-x="1161" d="M1044.48-64c0 0-384.614 0-384.614 0s211.49 210.671 211.49 210.671c16.111 16.043 16.111 42.052 0 58.095s-42.189 16.043-58.3 0c0 0-193.536-192.785-193.536-192.785s0 497.323 0 497.323c0 22.665-18.5 41.097-41.233 41.097-22.801 0-41.233-18.432-41.233-41.097 0 0 0-497.323 0-497.323s-193.604 192.785-193.604 192.785c-16.111 16.043-42.189 16.043-58.3 0-8.055-8.055-12.083-18.569-12.083-29.013 0-10.513 4.028-21.026 12.083-29.082 0 0 211.558-210.671 211.558-210.671s-380.655 0-380.655 0c-63.829 0-116.053 57.617-116.053 128 0 0 0 768 0 768 0 70.383 52.224 128 116.053 128 0 0 348.16 0 348.16 0s116.053-128 116.053-128c0 0 464.213 0 464.213 0 63.829 0 116.053-57.617 116.053-128 0 0 0-640 0-640 0-70.383-52.224-128-116.053-128z" />
<glyph unicode="&#xe925;" glyph-name="go-back-arrow1" horiz-adv-x="1489" d="M1458.828-62.045c-11.45 0-22.156 6.144-27.369 16.477-1.862 3.351-142.243 257.396-728.157 266.054 0 0 0-252.649 0-252.649 0-11.45-6.609-21.876-17.036-26.81-10.519-5.027-22.9-3.817-32.209 3.072 0 0-642.048 480.163-642.048 480.163-7.54 5.679-12.009 14.429-12.009 23.645 0 9.402 4.468 18.153 12.009 23.831 0 0 642.048 480.163 642.048 480.163 9.309 6.889 21.783 8.099 32.209 3.165 10.426-5.027 17.129-15.453 17.129-26.81 0 0 0-266.333 0-266.333 15.453 1.024 35.654 1.769 59.485 1.769 218.484 0 726.575-67.77 726.575-695.761 0-13.964-9.775-26.065-23.645-29.231-2.327-0.559-4.655-0.745-6.982-0.745z" />
<glyph unicode="&#xe926;" glyph-name="close-round1" d="M512-64c-282.752 0-512 229.216-512 512 0 282.752 229.248 512 512 512 282.784 0 512-229.248 512-512 0-282.784-229.216-512-512-512zM751.456 627.584c16.544 16.544 16.544 43.36 0 59.904-16.512 16.512-43.328 16.512-59.872-0.032 0 0-179.584-179.584-179.584-179.584s-179.584 179.616-179.584 179.616c-16.544 16.512-43.36 16.512-59.872 0-16.544-16.544-16.544-43.36 0-59.904 0 0 179.584-179.584 179.584-179.584s-179.584-179.616-179.584-179.616c-16.544-16.512-16.544-43.328 0-59.84 16.512-16.544 43.328-16.544 59.84-0.032 0 0 179.616 179.616 179.616 179.616s179.584-179.584 179.584-179.584c16.544-16.544 43.36-16.544 59.872 0 16.544 16.512 16.544 43.328 0 59.872 0 0-179.584 179.584-179.584 179.584s179.584 179.584 179.584 179.584z" />
<glyph unicode="&#xe927;" glyph-name="cloud-download1" horiz-adv-x="768" d="M708.928-64c0 0-649.856 0-649.856 0-32.64 0-59.072 26.944-59.072 60.224s26.432 60.224 59.072 60.224c0 0 649.856 0 649.856 0 32.64 0 59.072-26.944 59.072-60.224s-26.432-60.224-59.072-60.224zM415.744 130.688c-17.152-17.472-45.056-17.472-62.208 0 0 0-281.6 286.336-281.6 286.336-8.576 8.704-12.864 20.16-12.864 31.616s4.288 22.912 12.864 31.68c17.216 17.472 45.056 17.472 62.208 0 0 0 206.528-209.984 206.528-209.984s0 644.224 0 644.224c0 24.704 19.648 44.736 43.968 44.736s44.032-20.032 44.032-44.736c0 0 0-644.224 0-644.224s206.464 209.984 206.464 209.984c17.152 17.472 44.992 17.472 62.208 0 17.152-17.472 17.152-45.824 0-63.296 0 0-281.6-286.336-281.6-286.336z" />
<glyph unicode="&#xe928;" glyph-name="cogwheel1" d="M894.080 393.984c0 15.424 5.184 30.848 5.184 51.456 0 20.544 0 36.032-5.184 51.456 0 0 109.12 87.488 109.12 87.488 10.432 10.24 10.432 20.544 5.184 30.848 0 0-103.936 180.096-103.936 180.096-5.184 5.12-15.616 10.304-31.168 5.12 0 0-129.984-51.456-129.984-51.456-25.984 20.608-57.152 36.032-88.32 51.456 0 0-20.8 133.824-20.8 133.824 5.184 15.424-10.432 25.728-20.8 25.728 0 0-207.936 0-207.936 0-10.368 0-25.984-10.304-25.984-20.608 0 0-20.8-138.944-20.8-138.944-31.168-10.24-57.152-30.848-88.384-51.456 0 0-124.736 51.456-124.736 51.456-15.616 5.184-25.984 0-36.352-10.24 0 0-104-180.096-104-180.096-5.184-5.184 0-20.608 10.432-30.912 0 0 109.12-82.304 109.12-82.304 0-15.424-5.184-30.912-5.184-51.456 0-20.608 0-36.032 5.184-51.456 0 0-109.12-87.488-109.12-87.488-10.432-10.304-10.432-20.608-5.248-30.848 0 0 104-180.16 104-180.16 5.184-5.12 15.552-10.24 31.168-5.12 0 0 129.984 51.456 129.984 51.456 25.984-20.608 57.152-36.032 88.32-51.456 0 0 20.8-133.76 20.8-133.76 0-10.304 10.432-20.608 25.984-20.608 0 0 207.936 0 207.936 0 10.368 0 25.984 10.304 25.984 20.608 0 0 20.8 133.76 20.8 133.76 31.168 15.424 62.4 30.848 88.384 51.456 0 0 129.92-51.456 129.92-51.456 10.432-5.12 25.984 0 31.168 10.304 0 0 104 180.096 104 180.096 5.184 10.304 5.184 25.728-5.184 30.848 0 0-119.552 82.368-119.552 82.368zM509.376 265.344c-98.752 0-181.888 82.304-181.888 180.096 0 97.728 83.136 180.096 181.888 180.096 98.816 0 181.952-82.368 181.952-180.096 0-97.792-83.136-180.096-181.952-180.096z" />
<glyph unicode="&#xe929;" glyph-name="college1" horiz-adv-x="1339" d="M1105.369-18.314c0-16.62-13.43-30.090-30.050-30.090 0 0-48.286 0-48.286 0s-100.234 0-100.234 0c0 0-728.97 0-728.97 0-56.635 0-102.715 46.119-102.715 102.794 0 0 0 112.798 0 112.798 0 56.674 46.080 102.794 102.715 102.794 0 0 728.97 0 728.97 0s100.234 0 100.234 0c0 0 48.286 0 48.286 0 16.62 0 30.050-13.47 30.050-30.090 0-16.581-13.43-30.090-30.050-30.090 0 0-18.235 0-18.235 0s0-198.065 0-198.065c0 0 18.235 0 18.235 0 16.62 0 30.050-13.43 30.050-30.050zM1234.156 339.062c0-16.62-13.47-30.090-30.050-30.090 0 0-45.253 0-45.253 0s-103.266 0-103.266 0c0 0-604.751 0-604.751 0-52.697 0-95.547 42.89-95.547 95.586 0 0 0 80.305 0 80.305 0 52.697 42.85 95.586 95.547 95.586 0 0 604.751 0 604.751 0s103.266 0 103.266 0c0 0 45.214 0 45.214 0 16.62 0 30.090-13.509 30.090-30.090 0-16.62-13.47-30.090-30.090-30.090 0 0-15.124 0-15.124 0s0-151.119 0-151.119c0 0 15.124 0 15.124 0 16.62 0 30.090-13.47 30.090-30.090zM450.836 369.152c0 0 604.751 0 604.751 0s73.216 0 73.216 0c0 0 0 151.119 0 151.119s-73.216 0-73.216 0c0 0-604.751 0-604.751 0-19.535 0-35.407-15.872-35.407-35.407 0 0 0-80.305 0-80.305 0-19.535 15.872-35.407 35.407-35.407zM1269.76 944.443c0 0-257.536 0-257.536 0s-685.371 0-685.371 0c0 0-257.536 0-257.536 0-16.62 0-30.090-13.509-30.090-30.090 0-16.62 13.47-30.090 30.090-30.090 0 0 25.797 0 25.797 0s0-257.26 0-257.26c-13.745-9.57-22.804-25.482-22.804-43.481 0-29.145 23.71-52.894 52.854-52.894 29.184 0 52.894 23.749 52.894 52.894 0 17.999-9.058 33.91-22.804 43.481 0 0 0 257.26 0 257.26s141.548 0 141.548 0c0 0 0-237.174 0-237.174 0-16.62 13.43-30.090 30.050-30.090 0 0 685.371 0 685.371 0 16.62 0 30.050 13.47 30.050 30.090 0 0 0 237.174 0 237.174s227.486 0 227.486 0c16.62 0 30.090 13.47 30.090 30.090 0 16.581-13.47 30.090-30.090 30.090z" />
<glyph unicode="&#xe92a;" glyph-name="description1" d="M836.267 917.333h-836.267v-187.733h836.267v187.733zM0 541.867v-187.733h1024v187.733h-1024zM0-21.333h648.533v187.733h-648.533v-187.733z" />
<glyph unicode="&#xe92b;" glyph-name="edit1" d="M512-64c-282.752 0-512 229.216-512 512 0 282.752 229.248 512 512 512s512-229.248 512-512c0-282.784-229.248-512-512-512zM257.888 208.064c-1.888-8.512 5.728-16.096 14.176-14.016 0 0 114.944 27.936 114.944 27.936s-103.072 103.392-103.072 103.392c0 0-26.048-117.312-26.048-117.312zM311.84 353.376c0 0 103.072-103.392 103.072-103.392s261.056 261.728 261.056 261.728c0 0-103.136 103.392-103.136 103.392s-260.992-261.728-260.992-261.728zM754.208 640.064c0 0-45.984 46.112-45.984 46.112-17.76 17.792-46.624 17.792-64.448 0 0 0-44.064-44.192-44.064-44.192s103.136-103.392 103.136-103.392c0 0 51.36 51.52 51.36 51.52 13.792 13.824 13.792 36.096 0 49.952z" />
<glyph unicode="&#xe92c;" glyph-name="educator1" horiz-adv-x="945" d="M967.488 31.168l-72.832-69.248c0 0-10.816-14.592-36.48-17.344h-91.072c0 0-18.24 0.064-18.24 17.344v86.592c0 0-6.656 15.488 54.656 34.624 0 0 38.144 6.72 36.48 34.688l18.176 207.744c0 0 4.928 66.944-36.48 69.248h-36.288l-247.232-46.912c0.192-1.024 1.216-1.856 1.216-2.816v-385.344c0-13.056-11.2-23.68-25.088-23.68h-4.48c-13.888 0-25.024 10.624-25.024 23.68v385.344c0 1.088 1.024 1.792 1.152 2.816l-247.232 46.912h-36.352c-41.344-2.176-36.48-69.184-36.48-69.184l18.24-207.744c-1.6-27.968 36.48-34.688 36.48-34.688 61.248-19.2 54.592-34.496 54.592-34.496v-86.656c0-17.344-18.24-17.408-18.24-17.408h-91.072c-25.6 2.88-36.352 17.408-36.352 17.408l-72.96 69.12c-33.344 34.304-18.304 69.312-18.304 69.312l72.96 276.992c10.88 60.16 54.656 69.312 54.656 69.312l200.384 69.312c0 0 0.32-69.056 145.728-69.056 145.472 0 145.792 69.056 145.792 69.056l200.384-69.312c0 0 43.84-9.088 54.72-69.312l72.704-276.992c0 0 15.232-35.008-18.112-69.312zM512.32 481.92c-147.52 0-199.232 204.928-199.232 204.928v119.552c0 146.688 199.232 153.6 199.232 153.6s199.232 0 199.232-148.864v-121.344c0 0-51.776-207.872-199.232-207.872z" />
<glyph unicode="&#xe92d;" glyph-name="envelope1" horiz-adv-x="1390" d="M1301.723-13.751c-22.455-21.138-49.445-31.744-80.896-31.744 0 0-1054.501 0-1054.501 0-31.525 0-58.514 10.606-80.896 31.744-22.455 21.138-33.719 46.592-33.719 76.288 0 0 0 536.064 0 536.064 21.065-22.016 45.129-41.618 72.411-58.734 172.837-110.738 291.547-188.343 355.986-232.96 27.209-18.871 49.298-33.646 66.267-44.178 16.969-10.606 39.497-21.358 67.657-32.402s54.491-16.53 78.848-16.53c0 0 0.658 0 0.658 0s0.731 0 0.731 0c24.357 0 50.615 5.486 78.848 16.53 28.16 11.045 50.688 21.797 67.657 32.402 16.969 10.533 39.058 25.307 66.267 44.178 81.189 55.442 200.119 133.047 356.718 232.96 27.209 17.554 51.127 37.157 71.68 58.734 0 0 0-536.064 0-536.064 0-29.696-11.264-55.15-33.719-76.288zM1212.928 612.133c-179.566-117.467-291.328-190.61-335.214-219.429-4.827-3.145-14.994-10.021-30.501-20.626-15.506-10.533-28.379-19.090-38.693-25.6-10.24-6.583-22.674-13.824-37.23-21.943s-28.306-14.19-41.179-18.213c-12.873-4.096-24.869-6.071-35.84-6.071 0 0-0.731 0-0.731 0s-0.658 0-0.658 0c-11.045 0-22.967 1.975-35.84 6.071-12.873 4.023-26.624 10.094-41.179 18.213-14.555 8.046-26.99 15.36-37.303 21.943-10.24 6.51-23.113 15.067-38.619 25.6-15.579 10.606-25.673 17.481-30.501 20.626-43.447 28.818-105.984 69.851-187.685 123.246-81.627 53.248-130.56 85.358-146.798 96.183-29.623 18.944-57.563 44.91-83.822 77.97s-39.424 63.781-39.424 92.16c0 35.109 9.947 64.366 29.769 87.771s48.128 35.109 84.846 35.109c0 0 1054.501 0 1054.501 0 31.013 0 57.856-10.533 80.53-31.671 22.674-21.211 34.085-46.665 34.085-76.361 0-35.547-11.703-69.559-35.109-101.888-23.406-32.475-52.517-60.123-87.406-83.090z" />
<glyph unicode="&#xe92e;" glyph-name="etc1" horiz-adv-x="1071" d="M920.136 576.291c-70.839 0-128.291-57.508-128.291-128.291 0-70.908 57.451-128.291 128.291-128.291 70.851 0 128.291 57.383 128.291 128.291 0 70.782-57.44 128.291-128.291 128.291zM535.275 576.291c-70.839 0-128.291-57.508-128.291-128.291 0-70.908 57.451-128.291 128.291-128.291 70.851 0 128.291 57.383 128.291 128.291 0 70.782-57.44 128.291-128.291 128.291zM150.402 576.291c-70.839 0-128.291-57.508-128.291-128.291 0-70.908 57.451-128.291 128.291-128.291 70.851 0 128.291 57.383 128.291 128.291 0 70.782-57.44 128.291-128.291 128.291z" />
<glyph unicode="&#xe92f;" glyph-name="exclamation1" horiz-adv-x="155" d="M96.97-64c0 0-38.788 0-38.788 0-32.147 0-58.182 23.366-58.182 52.193 0 0 0 69.57 0 69.57 0 28.827 26.034 52.193 58.182 52.193 0 0 38.788 0 38.788 0 32.147 0 58.182-23.366 58.182-52.193 0 0 0-69.57 0-69.57 0-28.827-26.034-52.193-58.182-52.193zM108.606 214.342c0 0-62.061 0-62.061 0-25.693 0-46.545 20.821-46.545 46.545 0 0 0 652.567 0 652.567 0 25.693 20.852 46.545 46.545 46.545 0 0 62.061 0 62.061 0 25.693 0 46.545-20.852 46.545-46.545 0 0 0-652.567 0-652.567 0-25.724-20.852-46.545-46.545-46.545z" />
<glyph unicode="&#xe930;" glyph-name="eye1" horiz-adv-x="1071" d="M1049.692 463.851c-99.052 181.112-292.264 304.043-514.418 304.043-222.131 0-415.366-122.965-514.418-304.043-5.405-9.876-5.405-21.827 0-31.702 99.063-181.112 292.264-304.043 514.406-304.043 222.154 0 415.377 122.931 514.418 304.043 5.417 9.876 5.417 21.827 0.011 31.702zM535.263 202.605c-136.479 0-247.128 109.851-247.128 245.395 0 135.498 110.649 245.349 247.128 245.349 136.501 0 247.128-109.851 247.128-245.349 0-135.543-110.627-245.395-247.128-245.395zM535.263 573.041c-10.389 0-20.504-1.254-30.151-3.626 9.887-11.369 15.897-26.16 15.897-42.376 0-35.853-29.273-64.898-65.354-64.898-16.319 0-31.235 5.976-42.695 15.771-2.372-9.568-3.638-19.603-3.638-29.912 0-69.083 56.391-125.041 125.93-125.041 69.551 0 125.93 55.958 125.93 125.041 0.023 69.038-56.345 125.041-125.919 125.041z" />
<glyph unicode="&#xe931;" glyph-name="facebook3" horiz-adv-x="1071" d="M535.275 949.76c-277.12 0-501.76-224.663-501.76-501.76 0-277.154 224.64-501.76 501.76-501.76s501.76 224.606 501.76 501.76c-0.011 277.097-224.64 501.76-501.76 501.76zM690.421 444.328h-102.382v-372.648h-155.089c0 0 0.639 196.427 1.129 372.648h-86.975v110.798h87.192c0.182 60.702 0.296 111.47 0.296 139.341 0 129.853 127.105 129.294 127.105 129.294h151.805v-137.687c0 0-39.593 0-89.154 0-43.881 0-36.321-63.826-36.321-63.826v-67.133h135.395l-33.002-110.786z" />
<glyph unicode="&#xe932;" glyph-name="facebook21" horiz-adv-x="482" d="M456.041 594.492c0 0-153.48 0-153.48 0s0 98.605 0 98.605c0 37.045 25.058 45.658 42.707 45.658 17.589 0 108.303 0 108.303 0s0 162.816 0 162.816c0 0-149.203 0.542-149.203 0.542-165.647 0-203.294-121.374-203.294-199.078 0 0 0-108.544 0-108.544s-95.774 0-95.774 0c0 0 0-167.695 0-167.695s95.774 0 95.774 0c0-215.281 0-474.654 0-474.654s201.487 0 201.487 0c0 0 0 261.963 0 474.654 0 0 135.951 0 135.951 0s17.528 167.695 17.528 167.695z" />
<glyph unicode="&#xe933;" glyph-name="film1" horiz-adv-x="1071" d="M952.442 925.778h-832.978c-34.462 0-62.446-27.984-62.446-62.446v-832.944c0-34.45 27.984-62.515 62.446-62.515h832.978c34.496 0 62.48 28.064 62.48 62.515v832.944c0 34.462-27.939 62.446-62.48 62.446zM288.078 65.545c0-19.409-17.733-34.61-37.142-34.61h-96.315c-19.375 0-34.576 15.201-34.576 34.61v96.269c0 19.409 15.201 37.187 34.576 37.187h96.315c19.455 0 37.142-17.778 37.142-37.187v-96.269zM288.078 398.725c0-19.409-17.733-35.864-37.142-35.864h-96.315c-19.375 0-34.576 16.444-34.576 35.864v96.269c0 19.409 15.201 35.864 34.576 35.864h96.315c19.455 0 37.142-16.444 37.142-35.864v-96.269zM288.078 731.905c0-19.409-17.733-37.187-37.142-37.187h-96.315c-19.375 0-34.576 17.778-34.576 37.187v96.349c0 19.329 15.201 34.53 34.576 34.53h96.315c19.455 0 37.142-15.201 37.142-34.53v-96.349zM951.906 65.545c0-19.409-15.212-34.61-34.576-34.61h-96.315c-19.443 0-37.142 15.201-37.142 34.61v96.269c0 19.409 17.698 37.187 37.142 37.187h96.315c19.363 0 34.576-17.778 34.576-37.187v-96.269zM951.906 398.725c0-19.409-15.212-35.864-34.576-35.864h-96.315c-19.443 0-37.142 16.444-37.142 35.864v96.269c0 19.409 17.698 35.864 37.142 35.864h96.315c19.363 0 34.576-16.444 34.576-35.864v-96.269zM951.906 731.905c0-19.409-15.212-37.187-34.576-37.187h-96.315c-19.443 0-37.142 17.778-37.142 37.187v96.349c0 19.329 17.698 34.53 37.142 34.53h96.315c19.363 0 34.576-15.201 34.576-34.53v-96.349z" />
<glyph unicode="&#xe934;" glyph-name="film-eye1" horiz-adv-x="1071" d="M446.783 166.581c-3.147 6.044-3.147 13.388 0 19.455 57.702 111.060 170.233 186.506 299.63 186.506 10.286 0 20.435-0.65 30.482-1.574v495.75c0 27.175-22.032 49.207-49.229 49.207h-656.313c-27.152 0-49.207-22.032-49.207-49.207v-656.301c0-27.186 22.055-49.229 49.207-49.229h378.452c-0.981 1.813-2.075 3.558-3.022 5.394zM594.847 839.042c0 15.269 13.947 27.277 29.273 27.277h75.891c15.235 0 27.209-11.997 27.209-27.277v-75.914c0-15.304-11.974-29.273-27.209-29.273h-75.891c-15.326 0-29.273 13.981-29.273 29.273v75.914zM594.847 576.496c0 15.304 13.947 28.247 29.273 28.247h75.891c15.235 0 27.209-12.977 27.209-28.247v-75.891c0-15.304-11.974-28.247-27.209-28.247h-75.891c-15.326 0-29.273 12.943-29.273 28.247v75.891zM204.205 238.071c0-15.269-13.981-27.243-29.239-27.243h-75.891c-15.269 0-27.277 11.974-27.277 27.243v75.914c0 15.269 11.997 29.239 27.277 29.239h75.891c15.304 0 29.239-13.981 29.239-29.239v-75.914zM204.205 500.605c0-15.304-13.981-28.247-29.239-28.247h-75.891c-15.269 0-27.277 12.943-27.277 28.247v75.891c0 15.304 11.997 28.247 27.277 28.247h75.891c15.304 0 29.239-12.977 29.239-28.247v-75.891zM204.205 763.116c0-15.304-13.981-29.273-29.239-29.273h-75.891c-15.269 0-27.277 13.981-27.277 29.273v75.914c0 15.269 11.997 27.277 27.277 27.277h75.891c15.304 0 29.239-11.997 29.239-27.277v-75.914zM1016.109 184.531c-51.921 93.989-153.231 157.815-269.673 157.815s-217.752-63.826-269.673-157.815c-2.828-5.132-2.828-11.324 0-16.444 51.944-94.023 153.219-157.815 269.673-157.815s217.764 63.803 269.673 157.815c2.84 5.12 2.84 11.312 0 16.444zM746.436 48.942c-71.546 0-129.545 57.018-129.545 127.356s57.987 127.367 129.545 127.367 129.545-57.018 129.545-127.367-57.999-127.356-129.545-127.356zM746.436 241.195c-5.451 0-10.731-0.65-15.805-1.859 5.189-5.93 8.347-13.593 8.347-21.998 0-18.599-15.361-33.698-34.256-33.698-8.576 0-16.398 3.090-22.408 8.199-1.232-4.983-1.893-10.206-1.893-15.532 0-35.853 29.547-64.921 66.016-64.921s66.016 29.068 66.016 64.921-29.547 64.887-66.016 64.887z" />
<glyph unicode="&#xe935;" glyph-name="note1" horiz-adv-x="1071" d="M885.845 939.154l-421.603-130.982c-51.122-14.779-92.54-68.924-92.54-120.787v-445.391c0 0 0-6.055 0-6.249 0 0-30.539 20.96-98.596 11.187-99.896-14.403-180.93-92.29-180.93-174.019 0-81.718 81.034-131.723 180.93-117.389 100.021 14.403 173.278 89.883 173.278 171.545 0 0 0 349.384 0 385.671 0 36.161 42.9 51.75 42.9 51.75l372.819 118.621c0 0 41.224 14.095 41.224-24.666 0-38.818 0-309.449 0-309.449s0-0.057 0-0.308c0 0-37.951 22.191-106.008 13.787-99.896-12.305-180.941-88.64-180.941-170.245 0-81.73 81.046-133.525 180.941-121.164 100.021 12.305 181.055 88.526 181.055 170.245v630.712c-0.057 51.864-41.486 81.912-92.529 67.133z" />
<glyph unicode="&#xe936;" glyph-name="note-blog1" horiz-adv-x="896" d="M821.632-64c0 0-672.576 0-672.576 0-41.152 0-85.056 23.36-85.056 64 0 0 0 128 0 128s192 0 192 0c45.056 0 64 19.392 64 67.776 0 0 0 124.224 0 124.224 0 47.872-18.624 64-64 64 0 0-192 0-192 0s0 128 0 128c0 0 192 0 192 0 47.232 0 64 18.176 64 64 0 0 0 128 0 128 0 45.44-16.448 64-64 64 0 0-192 0-192 0s0 128 0 128c0 40.704 43.904 64 85.056 64 0 0 672.576 0 672.576 0 41.152 0 74.368-33.024 74.368-73.664 0 0 0-876.672 0-876.672 0-40.768-33.216-73.664-74.368-73.664zM256 576c0 0-256 0-256 0s0 128 0 128c0 0 256 0 256 0s0-128 0-128zM256 192c0 0-256 0-256 0s0 128 0 128c0 0 256 0 256 0s0-128 0-128z" />
<glyph unicode="&#xe937;" glyph-name="old-building1" horiz-adv-x="1260" d="M1242.27 8.231c0 0-11.776 0-15.675 0-8.586 0-8.586 9.964-8.586 9.964s0 697.305 0 697.305c0 17.526-14.612 31.902-32.492 31.902 0 0-188.534 0-251.392 0-9.019 0-8.546 8.389-8.546 8.389s0 134.42 0 134.42c0 1.339 0.748 2.836 5.238 2.836 9.925 0 18.078 7.995 18.078 17.723 0 0 0 31.508 0 31.508 0 9.728-8.153 17.723-18.078 17.723 0 0-583.719 0-583.719 0-9.925 0-18.038-7.995-18.038-17.723 0 0 0-31.508 0-31.508 0-9.728 8.113-17.723 18.038-17.723 5.238 0 5.278-4.608 5.278-5.159 0 0 0-128.985 0-128.985s0.866-11.5-6.814-11.5c-67.86 0-271.478 0-271.478 0-17.881 0-32.492-14.375-32.492-31.902 0 0 0-524.642 0-699.51 0-6.656-3.663-7.759-11.106-7.759-9.57 0-12.446 0-12.446 0-9.925 0-18.038-7.956-18.038-17.723 0 0 0-36.785 0-36.785 0-9.728 8.113-17.723 18.038-17.723 0 0 1224.231 0 1224.231 0 9.925 0 18.038 7.995 18.038 17.723 0 0 0 36.785 0 36.785 0 9.767-8.113 17.723-18.038 17.723zM707.978 594.511c0 0 108.032 0 108.032 0 7.956 0 14.454-6.38 14.454-14.178 0 0 0-106.102 0-106.102 0-7.838-6.498-14.218-14.454-14.218 0 0-108.032 0-108.032 0-7.956 0-14.454 6.38-14.454 14.218 0 0 0 106.102 0 106.102 0 7.798 6.498 14.178 14.454 14.178zM693.524 660.322c0 0 0 106.142 0 106.142 0 7.798 6.498 14.178 14.454 14.178 0 0 108.032 0 108.032 0 7.956 0 14.454-6.38 14.454-14.178 0 0 0-106.142 0-106.142 0-7.798-6.498-14.178-14.454-14.178 0 0-108.032 0-108.032 0-7.956 0-14.454 6.38-14.454 14.178zM707.978 414.956c0 0 108.032 0 108.032 0 7.956 0 14.454-6.38 14.454-14.178 0 0 0-106.142 0-106.142 0-7.798-6.498-14.178-14.454-14.178 0 0-108.032 0-108.032 0-7.956 0-14.454 6.38-14.454 14.178 0 0 0 106.142 0 106.142 0 7.798 6.498 14.178 14.454 14.178zM724.007 201.61c7.956 0 14.454-6.38 14.454-14.178 0 0 0-164.313 0-164.313 0-7.798-6.498-14.218-14.454-14.218 0 0-167.306 0-167.306 0-7.916 0-14.454 6.42-14.454 14.218 0 0 0 164.313 0 164.313 0 7.798 6.538 14.178 14.454 14.178 0 0 167.306 0 167.306 0zM584.586 660.322c0-7.798-6.498-14.178-14.454-14.178 0 0-108.032 0-108.032 0-7.956 0-14.454 6.38-14.454 14.178 0 0 0 106.142 0 106.142 0 7.798 6.498 14.178 14.454 14.178 0 0 108.032 0 108.032 0 7.956 0 14.454-6.38 14.454-14.178 0 0 0-106.142 0-106.142zM462.1 594.511c0 0 108.032 0 108.032 0 7.956 0 14.454-6.38 14.454-14.178 0 0 0-106.102 0-106.102 0-7.838-6.498-14.218-14.454-14.218 0 0-108.032 0-108.032 0-7.956 0-14.454 6.38-14.454 14.218 0 0 0 106.102 0 106.102 0 7.798 6.498 14.178 14.454 14.178zM462.1 414.956c0 0 108.032 0 108.032 0 7.956 0 14.454-6.38 14.454-14.178 0 0 0-106.142 0-106.142 0-7.798-6.498-14.178-14.454-14.178 0 0-108.032 0-108.032 0-7.956 0-14.454 6.38-14.454 14.178 0 0 0 106.142 0 106.142 0 7.798 6.498 14.178 14.454 14.178zM968.113 583.601c0 7.798 6.498 14.178 14.454 14.178 0 0 108.032 0 108.032 0 7.956 0 14.454-6.38 14.454-14.178 0 0 0-106.102 0-106.102 0-7.798-6.498-14.178-14.454-14.178 0 0-108.032 0-108.032 0-7.956 0-14.454 6.38-14.454 14.178 0 0 0 106.102 0 106.102zM968.113 397.47c0 7.798 6.498 14.178 14.454 14.178 0 0 108.032 0 108.032 0 7.956 0 14.454-6.38 14.454-14.178 0 0 0-106.102 0-106.102 0-7.798-6.498-14.178-14.454-14.178 0 0-108.032 0-108.032 0-7.956 0-14.454 6.38-14.454 14.178 0 0 0 106.102 0 106.102zM968.113 217.915c0 7.798 6.498 14.178 14.454 14.178 0 0 108.032 0 108.032 0 7.956 0 14.454-6.38 14.454-14.178 0 0 0-106.102 0-106.102 0-7.838-6.498-14.218-14.454-14.218 0 0-108.032 0-108.032 0-7.956 0-14.454 6.38-14.454 14.218 0 0 0 106.102 0 106.102zM154.545 583.601c0 7.798 6.498 14.178 14.454 14.178 0 0 108.032 0 108.032 0 7.956 0 14.454-6.38 14.454-14.178 0 0 0-106.102 0-106.102 0-7.798-6.498-14.178-14.454-14.178 0 0-108.032 0-108.032 0-7.956 0-14.454 6.38-14.454 14.178 0 0 0 106.102 0 106.102zM154.545 397.47c0 7.798 6.498 14.178 14.454 14.178 0 0 108.032 0 108.032 0 7.956 0 14.454-6.38 14.454-14.178 0 0 0-106.102 0-106.102 0-7.798-6.498-14.178-14.454-14.178 0 0-108.032 0-108.032 0-7.956 0-14.454 6.38-14.454 14.178 0 0 0 106.102 0 106.102zM154.545 217.915c0 7.798 6.498 14.178 14.454 14.178 0 0 108.032 0 108.032 0 7.956 0 14.454-6.38 14.454-14.178 0 0 0-106.102 0-106.102 0-7.838-6.498-14.218-14.454-14.218 0 0-108.032 0-108.032 0-7.956 0-14.454 6.38-14.454 14.218 0 0 0 106.102 0 106.102z" />
<glyph unicode="&#xe938;" glyph-name="google-plus1" horiz-adv-x="1152" d="M1103.232 429.056c0 0-160.384 0-160.384 0s0-158.848 0-158.848c0-12.16-9.984-22.016-22.144-22.016 0 0-45.696 0-45.696 0-12.288 0-22.272 9.856-22.272 22.016 0 0 0 158.848 0 158.848s-160.384 0-160.384 0c-12.224 0-22.208 9.792-22.208 21.952 0 0 0 45.248 0 45.248 0 12.16 9.984 22.016 22.208 22.016 0 0 160.384 0 160.384 0s0 158.784 0 158.784c0 12.16 9.984 22.016 22.272 22.016 0 0 45.696 0 45.696 0 12.16 0 22.144-9.856 22.144-22.016 0 0 0-158.784 0-158.784s160.384 0 160.384 0c12.224 0 22.208-9.856 22.208-21.952 0 0 0-45.248 0-45.248 0-12.16-9.984-22.016-22.208-22.016zM622.4 817.472c-3.712-2.752-8.32-4.16-12.992-4.16 0 0-22.592 0-22.592 0 29.12-34.688 46.272-83.968 46.272-139.456 0-61.184-31.36-119.104-88.192-163.2-43.968-33.92-45.696-43.2-45.696-62.592 0.512-10.688 31.168-45.376 64.96-68.992 78.656-55.168 107.968-109.248 108.032-199.552 0-94.080-72.384-175.616-184.256-207.808-35.84-10.24-74.688-15.424-115.392-15.424-45.248 0-88.896 5.12-129.472 15.296-78.72 19.648-136.896 56.896-163.968 104.896-11.712 20.736-17.664 42.88-17.664 65.856 0 23.552 5.696 47.488 16.96 71.168 43.136 91.008 156.736 152.064 282.56 152.064 1.28 0 2.432 0 3.584 0-10.24 17.792-15.232 36.224-15.232 55.68 0 9.664 1.344 19.52 3.904 29.504-132.032 3.008-230.784 98.624-230.784 224.896 0 89.088 71.936 175.872 174.848 210.944 30.784 10.496 62.144 15.872 92.992 15.872 0 0 282.304 0 282.304 0 9.6 0 18.048-6.144 21.056-15.232 3.008-9.024-0.256-18.944-8.128-24.512 0 0-63.104-45.248-63.104-45.248zM207.68 172.288c0-71.488 72.128-127.424 164.288-127.424 121.6 0 183.232 41.472 183.232 123.264 0 7.808-0.96 15.744-2.88 23.808-8.192 31.808-37.632 51.584-82.112 81.664-6.080 4.096-12.48 8.384-19.072 12.864-19.2 5.888-39.616 8.896-60.48 9.152 0 0-2.624 0-2.624 0-96.064 0-180.352-57.6-180.352-123.328zM487.424 665.472c-11.008 82.816-70.72 151.68-133.056 153.472 0 0-2.496 0-2.496 0-22.080 0-41.792-8.96-56.768-25.92-23.232-26.24-33.088-67.776-26.944-113.984 10.88-82.688 71.872-154.112 132.992-155.968 0 0 1.024 0 1.024 0s0 0 0 0c22.976 0 42.368 8.896 57.472 25.984 23.488 26.496 33.92 70.080 27.776 116.416z" />
<glyph unicode="&#xe939;" glyph-name="heart1" horiz-adv-x="1071" d="M768.947 932.654c-88.31 0-176.54-42.125-233.672-110.615-57.132 68.49-145.373 110.615-233.672 110.615-160.985 0-285.592-126.432-285.592-289.721 0-200.202 176.54-363.491 446.589-605.886l72.687-73.702 72.687 73.702c270.026 242.395 446.577 405.684 446.577 605.886 0 163.289-124.619 289.721-285.604 289.721z" />
<glyph unicode="&#xe93a;" glyph-name="insert-pic1" horiz-adv-x="1103" d="M969.905 954.939c0 0-836.982 0-836.982 0-67.466 0-122.329-54.843-122.329-122.407 0 0 0-769.221 0-769.221 0-67.466 54.863-122.25 122.329-122.25 0 0 836.982 0 836.982 0 67.446 0 122.27 54.784 122.27 122.25 0 0 0 769.221 0 769.221 0 67.564-54.823 122.407-122.27 122.407zM709.986 772.923c65.241 0 118.154-52.933 118.154-118.154 0-65.26-52.913-118.154-118.154-118.154-65.26 0-118.154 52.894-118.154 118.154 0 65.221 52.894 118.154 118.154 118.154zM931.525 54.134c0 0-380.16 0-380.16 0s-363.225 0-363.225 0c-32.63 0-47.163 23.631-32.433 52.736 0 0 202.752 401.644 202.752 401.644 14.69 29.105 42.693 31.705 62.543 5.809 0 0 203.874-266.476 203.874-266.476 19.85-25.895 54.508-28.101 77.43-4.903 0 0 49.881 50.511 49.881 50.511 22.922 23.237 56.694 20.342 75.422-6.361 0 0 129.162-184.517 129.162-184.517 18.649-26.742 7.404-48.443-25.246-48.443z" />
<glyph unicode="&#xe93b;" glyph-name="link1" horiz-adv-x="1071" d="M462.542 190.803l-65.651-65.719c-50.837-50.815-133.628-50.815-184.511 0-50.872 50.883-50.872 133.639 0 184.511l184.511 184.568c50.906 50.815 133.628 50.815 184.476 0 15.908-15.965 26.263-35.089 32.261-55.353 4.824 2.84 9.784 5.12 13.89 9.226l85.721 85.653c-10.947 18.691-23.571 36.674-39.616 52.651-101.88 101.937-267.107 101.937-368.987 0l-184.476-184.454c-101.914-101.937-101.914-267.13 0-369.010 101.88-101.88 267.073-101.88 368.987 0l139.82 139.82c-55.866-8.211-113.238-2.657-166.425 18.109zM950.424 863.126c-101.937 101.88-267.107 101.88-369.044 0l-139.797-139.808c55.832 8.211 113.215 2.646 166.425-18.12l65.616 65.719c50.872 50.815 133.639 50.815 184.476 0 50.917-50.883 50.917-133.639 0-184.579l-184.476-184.454c-50.849-50.872-133.628-50.872-184.476 0-15.931 15.919-26.285 35.1-32.192 55.365-4.835-2.782-9.853-5.12-13.958-9.214l-85.721-85.789c11.016-18.554 23.571-36.606 39.605-52.639 101.88-101.88 267.107-101.88 368.953 0l184.579 184.568c101.857 101.823 101.857 267.073 0.011 368.953z" />
<glyph unicode="&#xe93c;" glyph-name="location1" horiz-adv-x="768" d="M384 960c-212.032 0-384-171.968-384-384 0-212.096 320-640 384-640s384 427.904 384 640c0 212.032-171.904 384-384 384zM384 320c-141.184 0-256 114.88-256 256s114.816 256 256 256c141.184 0 256-114.88 256-256s-114.816-256-256-256z" />
<glyph unicode="&#xe93d;" glyph-name="lock1" horiz-adv-x="1071" d="M839.193 542.319h-17.984v89.439c0 165.398-123.319 303.622-277.496 306.541-4.265 0.103-12.658 0.103-16.866 0-154.177-2.931-277.553-141.143-277.553-306.552v-89.439h-17.927c-27.722 0-50.279-30.425-50.279-67.943v-448.539c0-37.507 22.556-68.205 50.279-68.205h607.825c27.665 0 50.267 30.699 50.267 68.205v448.55c-0.057 37.507-22.602 67.943-50.267 67.943zM592.225 250.558v-135.555c0-15.475-12.236-28.623-26.81-28.623h-60.28c-14.631 0-26.81 13.137-26.81 28.623v135.555c-14.152 14.848-22.397 35.328-22.397 57.987 0 43.037 31.235 79.962 70.919 81.661 4.208 0.16 12.658 0.16 16.866 0 39.685-1.699 70.919-38.624 70.919-81.661-0.011-22.659-8.256-43.14-22.408-57.987zM702.885 542.319h-335.221v89.439c0 98.527 75.23 180.029 167.576 180.029 92.358 0 167.645-81.502 167.645-180.029v-89.439z" />
<glyph unicode="&#xe93e;" glyph-name="logo1" horiz-adv-x="1071" d="M83.634 322.914c4.79-4.664 11.107-7.047 18.77-7.047 4.904 0 10.469 1.015 16.547 3.022 12.487 4.060 25.282 9.704 38.020 16.786l3.946 2.178 60.371 477.048-3.547 9.864-2.064 1.608c-7.857 6.055-18.337 9.123-31.155 9.123h-0.354c-9.511-0.011-17.584-1.825-23.982-5.36l-4.082-2.247-33.96-319.929c-2.121 22.579-4.162 42.193-6.169 58.706l-24.506 204.775c-2.486 21.085-5.953 36.321-10.628 46.561-7.196 15.862-19.067 19.192-27.836 19.192-10.058-0.034-21.382-6.671-34.621-20.253l-3.011-3.079 53.392-447.319c3.068-22.762 7.789-36.606 14.87-43.63zM311.787 385.907l3.843 2.646v441.001l-5.861 2.132c-7.686 2.794-17.219 4.219-28.349 4.219h-0.502c-11.712-0.057-21.12-1.597-28.749-4.698l-5.576-2.269v-460.57l8.29-0.57c0.981-0.057 2.018-0.091 3.079-0.091 7.127 0 15.783 1.642 25.727 4.892 11.096 3.615 20.538 8.085 28.099 13.308zM519.914 478.482c14.597 23.127 24.541 48.842 29.547 76.393 4.972 26.764 7.504 58.067 7.504 93.008 0 25.521-1.528 49.572-4.539 71.432-3.079 22.454-8.461 42.33-15.965 59.082-7.766 17.505-18.417 31.611-31.588 41.897-13.605 10.822-30.528 16.319-50.324 16.319h-0.433c-14.791-0.068-28.965-0.308-42.136-0.741-13.468-0.502-26.468-1.175-38.647-1.984l-4.915-0.354-5.622-10.583v-408.318l7.241-11.21 6.283 1.779c17.607 4.972 33.333 9.476 46.755 13.422 13.605 4.037 22.488 6.74 28.714 8.804 14.118 4.584 27.266 11.21 39.012 19.705 11.951 8.496 21.781 19.112 29.113 31.349zM451.572 516.342l-17.984-4.824c-0.81-0.228-1.608-0.445-2.383-0.661v236.295c1.676 0.057 3.41 0.137 5.211 0.251l18.006 1.118c0.411 0.023 0.81 0.034 1.209 0.034 20.219 0 31.36-38.829 31.36-109.315-0.011-93.738-19.261-118.575-35.42-122.897zM620.87 485.666c3.41 0 7.047 0.616 10.776 1.847l84.695 27.483c22.317 7.241 35.648 24.826 38.601 50.929 0.661 6.261 0.992 14.836 0.992 25.487v11.609l-84.74-22.26c-3.421-0.901-7.481-2.064-12.236-3.512l0.217 22.157v28.349l68.627 13.342 1.197 5.827c2.030 9.602 3.045 20.127 3.045 31.212 0 11.347-1.015 21.062-3.090 29.695l-1.904 7.834-56.391-7.561c-4.117-0.559-7.937-1.095-11.472-1.654v22.397l-0.239 25.407 84.489 5.839 1.699 6.112c3.147 11.483 4.755 22.636 4.755 33.128 0 10.172-0.673 19.705-1.984 28.338l-1.163 7.64-149.661-1.049-6.306-9.727v-292.047c0-16.41 3.17-28.418 9.75-36.788 5.234-6.568 12.27-10.035 20.344-10.035zM241.517 105.013c-5.314 8.359-11.267 14.95-17.676 19.546l-5.896 4.219-5.28-4.972c-10.218-9.556-19.808-16.695-28.429-21.154-8.233-4.174-15.68-6.489-22.123-6.899-11.415-0.707-19.591 3.318-25.658 12.863-6.671 10.263-10.081 27.506-10.081 51.157 0 24.461 2.851 43.733 8.541 57.36 5.097 12.362 12.943 19.774 24.005 22.625 2.737 0.718 5.234 1.083 7.447 1.083 4.379 0 17.721 0 17.721-39.126v-12.521l7.834-0.935c8.393-1.004 16.045-0.878 22.75 0.388 17.026 3.125 37.313 14.357 37.313 50.096 0 12.977-2.304 24.746-6.888 35.066-4.767 10.491-11.712 18.896-20.686 24.997-8.815 5.884-19.512 9.294-31.873 10.183-11.746 0.73-24.906-1.175-39.137-5.656-13.833-4.356-27.072-11.369-39.251-20.743-12.202-9.203-22.91-20.549-31.816-33.686-8.929-12.886-16.102-27.87-21.302-44.474-5.189-16.433-7.834-34.952-7.834-55.045 0-15.441 1.688-30.379 5.018-44.337 3.398-14.551 9.066-27.642 16.798-38.829 7.914-11.677 18.417-21.222 31.132-28.315 13.069-7.458 28.954-11.278 47.245-11.278 9.271 0 18.588 1.175 27.734 3.467 8.975 2.281 17.698 5.428 26.012 9.294 8.279 3.946 16.148 8.804 23.491 14.574 7.218 5.759 13.582 11.974 18.93 18.405l2.6 3.147-0.616 4.037c-1.277 8.359-4.664 16.934-10.024 25.464zM403.791 373.922c-8.53-0.217-19.455-2.383-33.401-6.728-11.723-3.626-22.317-7.88-31.44-12.601l-3.615-1.859-74.272-307.077 4.55-9.054 2.851-1.3c7.743-3.558 17.231-5.268 28.988-5.268h0.399c10.491 0.023 18.634 1.061 24.871 3.147l4.778 1.608 13.764 62.173c1.996 0.103 4.208 0.239 6.66 0.411l46.823 3.261c1.882 0.125 3.581 0.262 5.154 0.422l4.63-22.933c3.626-17.733 8.119-29.684 13.673-36.594 6.363-7.926 16.729-11.928 30.767-11.928h0.228c11.734 0.011 22.397 3.968 31.691 11.689l4.208 3.535-74.010 329.28-7.298-0.182zM382.466 176.605l-24.746-3.136 4.892 23.035c3.398 17.869 6.329 33.595 8.735 46.937 3.558-18.098 6.785-34.085 9.762-48.272l3.649-18.337c-0.992-0.091-1.756-0.137-2.292-0.228zM733.903 475.471c-10.731 0.239-23.332-1.825-37.472-6.215-13.844-4.333-26.069-9.841-36.355-16.364l-3.535-2.235-20.355-152.273c-1.802-15.098-3.364-28.486-4.744-40.209-1.311 10.64-2.771 22.351-4.368 35.123l-20.561 140.732-7.754-0.068c-10.731-0.125-23.241-2.383-37.142-6.728-13.662-4.242-25.852-9.533-36.218-15.76l-4.105-2.44-18.029-370.527 5.896-2.372c7.743-3.147 17.162-4.71 27.973-4.71h0.57c10.697 0.023 19.785 1.083 26.97 3.17l6.238 1.779 5.166 157.986c0.376 11.119 0.696 21.758 1.004 32.010l19.489-133.046 5.896-1.368c8.69-2.053 18.656-2.794 29.615-2.258 11.107 0.547 21.097 2.326 29.672 5.303l5.177 1.802 19.557 147.118c0.239-10.332 0.479-21.325 0.741-32.945l5.485-173.597 6.044-1.893c7.093-2.235 16.056-3.341 26.673-3.341h0.547c11.255 0.046 21.040 2.064 29.068 6.010l5.246 2.566-18.075 434.524-8.313 0.228zM955.669 499.259c-8.005 13.901-18.086 23.355-29.992 28.121-11.757 4.653-24.963 4.812-38.966 0.456-6.272-1.927-15.247-4.949-29.125-9.739-12.647-4.402-28.577-9.978-47.713-16.752l-3.615-1.289-4.63-10.594v-450.284l5.759-2.201c7.789-2.942 17.254-4.39 28.965-4.39h0.433c11.7 0.046 21.313 1.631 29.364 4.778l5.656 2.224v142.557l18.155 1.825c13.707 1.414 26.354 6.842 37.689 16.216 10.97 9.18 20.39 22.043 28.007 38.305 7.344 15.885 13.126 35.385 17.208 57.976 4.060 22.511 6.124 48.283 6.124 76.678 0 28.361-2.007 53.323-5.941 74.249-3.991 21.222-9.83 38.635-17.379 51.864zM905.858 331.272c-1.038-9.419-2.703-17.687-4.949-24.655-2.087-6.557-4.812-11.974-8.062-16.068-2.589-3.261-5.554-5.063-9.397-5.656-1.414-0.228-4.117-0.764-7.583-1.517-1.209-0.274-2.554-0.547-4.048-0.878v138.6c1.266 0.262 2.577 0.593 3.923 0.935l4.128 1.061c2.897 0.753 6.044 1.562 9.476 2.418 0.684 0.182 1.334 0.274 1.893 0.274 0.889 0 1.893-0.171 3.227-1.403 2.6-2.372 4.847-6.306 6.683-11.712 2.11-6.158 3.683-13.798 4.71-22.727 1.061-9.146 1.608-18.782 1.608-28.646-0.011-10.32-0.559-20.424-1.608-30.026zM954.221 805.914c-9.26 11.107-20.561 19.603-33.538 25.202-13.137 5.896-27.859 8.872-43.744 8.872-16.25 0-31.029-3.33-44.029-9.944-13.126-6.808-24.392-17.151-33.504-30.699-8.815-13.354-15.634-30.026-20.253-49.56-4.539-19.306-6.842-41.737-6.842-66.666 0-59.379 12.806-99.12 38.054-118.187l0.239-0.205c10.936-7.686 23.606-11.563 37.712-11.563 9.716 0 20.276 1.859 31.428 5.554 15.577 5.109 29.98 12.772 42.729 22.682 12.59 9.602 23.469 21.313 32.329 34.77 8.792 13.194 15.566 28.201 20.173 44.668 4.618 16.205 6.956 34.359 6.956 53.973 0 19.683-2.349 37.187-7.013 51.989-4.755 15.281-11.712 28.475-20.698 39.114zM908.584 675.137c-0.992-8.598-2.908-16.695-5.725-24.039-2.76-7.276-6.454-13.525-11.312-19.124-4.345-5.075-9.898-8.484-16.946-10.412-2.862-0.798-5.497-1.186-7.846-1.186-5.303 0-11.962 1.768-16.307 15.532-2.429 8.701-4.094 17.402-4.995 25.886-0.924 8.69-1.403 18.998-1.403 30.619 0 7.572 0.308 16.512 0.947 27.38 0.616 9.933 2.189 19.455 4.653 28.27 2.338 8.233 5.884 15.269 10.491 20.857 3.832 4.573 9.465 7.036 17.311 7.458 7.971 0.468 13.821-1.197 17.596-5.063 4.561-4.653 7.846-10.4 10.012-17.63 2.372-7.846 3.809-16.444 4.288-25.601 0.536-9.876 0.821-18.873 0.821-26.73-0.011-8.302-0.536-17.117-1.585-26.217zM981.864 868.976c-0.228-1.152-0.331-2.44-0.331-3.923 0-1.471 0.114-2.782 0.331-3.923h5.976l3.695 0.057v-32.158c1.232-0.228 2.737-0.354 4.539-0.354s3.353 0.125 4.653 0.354v27.848l-0.057 4.322h0.057l3.649-0.057h1.688c1.688 0 2.919 0.308 3.683 0.958 0.775 0.65 1.186 1.699 1.186 3.17 0 1.437-0.182 2.68-0.49 3.718h-28.577zM1052.11 868.919c-1.733 0.308-3.763 0.468-6.078 0.468-2.304 0-4.345-0.16-6.010-0.468l-3.49-14.334c-1.266-6.067-1.973-9.59-2.144-10.571h-0.388c-0.091 0.582-0.787 4.105-2.144 10.571l-3.41 14.334c-1.733 0.308-3.763 0.468-6.090 0.468-2.315 0-4.322-0.16-6.021-0.468l-3.068-39.764c1.197-0.308 2.668-0.479 4.436-0.479 1.745 0 3.182 0.103 4.311 0.308l0.878 16.239c0.308 5.542 0.445 10.035 0.445 13.513h0.411l5.69-23.788c1.38-0.228 2.976-0.331 4.767-0.331 1.802 0 3.375 0.114 4.778 0.331l5.736 23.788h0.342c0.023-2.52 0.194-7.013 0.479-13.513l0.924-16.239c1.106-0.205 2.543-0.308 4.288-0.308 1.768 0 3.25 0.171 4.436 0.479l-3.079 39.764z" />
<glyph unicode="&#xe93f;" glyph-name="logo-eye1" horiz-adv-x="1071" d="M702.463 558.889c-10.24 0.228-22.271-1.688-35.785-5.736-13.205-4.003-24.894-9.066-34.69-15.098l-3.375-2.053-19.432-140.47c-1.711-13.912-3.204-26.274-4.527-37.073-1.266 9.796-2.646 20.641-4.162 32.375l-19.626 129.819-7.401-0.057c-10.24-0.114-22.18-2.189-35.477-6.192-13.034-3.911-24.666-8.792-34.576-14.551l-3.911-2.258-14.642-290.792c17.79 31.816 40.323 60.314 66.666 84.455l0.285 8.313c0.342 10.252 0.65 20.082 0.958 29.535l4.892-32.318c44.953 39.194 100.112 66.004 160.768 75.253l-8.051 186.655-7.914 0.194zM775.675 641.246c10.446-7.104 22.556-10.674 36.001-10.674 9.26 0 19.341 1.722 29.992 5.132 14.893 4.698 28.612 11.769 40.791 20.914 12.031 8.838 22.42 19.66 30.858 32.067 8.393 12.156 14.87 26.012 19.261 41.19 4.425 14.95 6.648 31.668 6.648 49.777 0 18.155-2.258 34.325-6.705 47.975-4.516 14.072-11.153 26.24-19.74 36.070-8.826 10.252-19.648 18.075-32.010 23.263-12.567 5.44-26.605 8.165-41.783 8.165-15.509 0-29.627-3.068-42.045-9.146-12.533-6.306-23.286-15.828-31.987-28.327-8.416-12.339-14.927-27.711-19.341-45.729-4.333-17.79-6.534-38.487-6.534-61.488 0-54.76 12.225-91.423 36.355-109.019l0.239-0.171zM808.494 784.247c0.593 9.18 2.087 17.961 4.447 26.069 2.224 7.606 5.633 14.106 10.024 19.261 3.661 4.219 9.043 6.477 16.501 6.876 7.629 0.422 13.205-1.106 16.843-4.675 4.333-4.276 7.458-9.568 9.545-16.273 2.247-7.207 3.626-15.144 4.071-23.594 0.513-9.123 0.787-17.402 0.787-24.666 0-7.663-0.502-15.771-1.494-24.187-0.958-7.914-2.782-15.406-5.485-22.157-2.634-6.728-6.135-12.476-10.776-17.653-4.14-4.675-9.465-7.834-16.193-9.602-2.725-0.73-5.268-1.095-7.481-1.095-5.063 0-11.404 1.631-15.543 14.323-2.338 8.028-3.946 16.056-4.79 23.879-0.867 8.028-1.346 17.516-1.346 28.247-0.011 6.979 0.308 15.224 0.889 25.248zM630.894 652.764l0.228 20.435v26.149l65.491 12.305 1.186 5.383c1.916 8.872 2.897 18.554 2.897 28.771 0 10.469-0.981 19.432-2.954 27.392l-1.836 7.23-53.837-6.979c-3.946-0.502-7.572-1.015-10.947-1.517v20.641l-0.251 23.457 80.692 5.371 1.608 5.633c3.011 10.583 4.527 20.891 4.527 30.55 0 9.374-0.616 18.166-1.893 26.126l-1.129 7.070-142.853-0.947-6.033-8.975v-269.399c0-15.155 3.045-26.217 9.317-33.926 5.006-6.033 11.712-9.237 19.432-9.237 3.261 0 6.728 0.593 10.309 1.711l80.829 25.35c21.313 6.671 34.040 22.887 36.857 46.96 0.616 5.793 0.958 13.684 0.958 23.514v10.719l-80.92-20.527c-3.261-0.832-7.116-1.916-11.677-3.261zM914.16 580.829c-7.629 12.84-17.254 21.576-28.635 25.955-11.198 4.276-23.822 4.425-37.199 0.399-5.987-1.768-14.551-4.561-27.813-8.986-12.076-4.048-27.255-9.18-45.523-15.452l-3.467-1.186-4.425-9.773v-196.154c52.605-0.228 102.256-13.536 146.16-36.959 0.274 0.559 0.593 1.049 0.867 1.619 7.036 14.642 12.555 32.66 16.433 53.494 3.889 20.743 5.839 44.543 5.839 70.725 0 26.149-1.893 49.184-5.668 68.467-3.786 19.58-9.351 35.659-16.569 47.85zM866.607 425.888c-0.981-8.701-2.6-16.33-4.698-22.75-2.030-6.055-4.618-11.039-7.72-14.802-2.475-3.011-5.325-4.675-8.975-5.211-1.357-0.194-3.923-0.707-7.241-1.414-1.163-0.251-2.429-0.502-3.866-0.81v127.846c1.209 0.251 2.452 0.536 3.752 0.844l3.946 0.981c0 0 5.77 1.437 9.032 2.224 0.65 0.194 1.266 0.251 1.802 0.251 0.844 0 1.802-0.137 3.090-1.289 2.486-2.167 4.618-5.804 6.375-10.788 1.996-5.69 3.524-12.761 4.504-20.971 1.015-8.416 1.551-17.322 1.551-26.411 0-9.511-0.536-18.839-1.551-27.699zM498.167 561.683c13.935 21.348 23.423 45.044 28.213 70.474 4.733 24.7 7.15 53.551 7.15 85.789 0 23.537-1.46 45.729-4.333 65.879-2.919 20.72-8.074 39.046-15.224 54.509-7.401 16.136-17.596 29.17-30.163 38.635-12.989 9.99-29.148 15.064-48.043 15.064h-0.422c-14.129-0.080-27.642-0.274-40.232-0.707-12.863-0.456-25.248-1.072-36.879-1.836l-4.698-0.308-5.348-9.773v-376.639l6.888-10.32 5.998 1.631c16.809 4.584 31.816 8.735 44.622 12.384 13.012 3.718 21.462 6.226 27.426 8.108 13.49 4.231 26.012 10.366 37.221 18.189 11.438 7.823 20.812 17.63 27.825 28.92zM432.893 596.589l-17.14-4.447c-0.787-0.228-1.551-0.399-2.281-0.616v217.98c1.608 0.023 3.239 0.137 4.961 0.228l17.208 1.038c0.365 0 0.753 0.023 1.152 0.023 19.284 0 29.935-35.819 29.935-100.819-0.011-86.497-18.405-109.384-33.835-113.386zM81.661 418.168c4.584-4.311 10.617-6.5 17.938-6.5 4.675 0 9.967 0.935 15.771 2.782 11.94 3.752 24.13 8.952 36.286 15.452l3.775 2.030 57.668 440.043-3.41 9.089-1.973 1.46c-7.492 5.599-17.516 8.45-29.729 8.45h-0.331c-9.111-0.011-16.798-1.676-22.91-4.938l-3.911-2.087-32.432-295.103c-2.030 20.834-3.968 38.943-5.861 54.167l-23.423 188.878c-2.372 19.455-5.69 33.504-10.138 42.969-6.865 14.631-18.189 17.698-26.582 17.698-9.602-0.046-20.378-6.158-33.048-18.691l-2.874-2.817 50.963-412.617c2.919-21.005 7.424-33.789 14.22-40.266zM387.29 465.219c-8.142-0.194-18.554-2.189-31.873-6.192-11.21-3.353-21.313-7.264-30.014-11.632l-3.467-1.711-70.896-283.255 4.333-8.359 2.725-1.209c7.378-3.273 16.444-4.847 27.677-4.847h0.365c10.024 0.023 17.801 0.981 23.742 2.897l4.561 1.46 13.148 57.349c1.882 0.114 4.003 0.228 6.363 0.365l44.679 3.011c1.802 0.114 3.432 0.251 4.926 0.399l4.425-21.142c3.467-16.364 7.743-27.392 13.069-33.755 6.055-7.321 15.965-11.004 29.364-11.004h0.205c11.198 0.023 21.393 3.661 30.265 10.788l4.003 3.261-70.645 303.713-6.956-0.137zM366.934 283.218l-23.628-2.897 4.675 21.256c3.239 16.467 6.021 30.972 8.325 43.265 3.375-16.695 9.317-44.508 9.317-44.508l3.49-16.923c-0.947-0.080-2.178-0.194-2.178-0.194zM482.282 155.816l5.611-2.201c2.372-0.935 5.189-1.46 7.891-2.098-4.447 6.922-8.678 14.004-12.635 21.279l-0.867-16.98zM232.372 217.168c-5.063 7.72-10.754 13.798-16.866 18.052l-5.633 3.889-5.040-4.561c-9.762-8.838-18.919-15.429-27.141-19.534-7.857-3.854-14.973-5.964-21.12-6.34-10.925-0.673-18.691 3.045-24.495 11.86-6.363 9.465-9.625 25.373-9.625 47.188 0 22.556 2.725 40.323 8.165 52.913 4.869 11.404 12.362 18.212 22.921 20.869 2.589 0.65 4.983 0.981 7.093 0.981 4.197 0 16.923 0 16.923-36.070v-11.575l7.492-0.878c7.994-0.901 15.315-0.787 21.713 0.365 16.25 2.897 35.625 13.262 35.625 46.207 0 11.997-2.201 22.864-6.568 32.352-4.561 9.682-11.176 17.425-19.762 23.058-8.416 5.44-18.611 8.587-30.413 9.408-11.233 0.673-23.788-1.072-37.358-5.234-13.24-4.003-25.852-10.469-37.484-19.112-11.655-8.473-21.906-18.953-30.379-31.052-8.53-11.905-15.372-25.704-20.321-41.053-4.961-15.144-7.492-32.215-7.492-50.769 0-14.243 1.608-28.019 4.812-40.905 3.239-13.433 8.644-25.476 16.045-35.819 7.549-10.754 17.573-19.569 29.706-26.126 12.476-6.876 27.62-10.389 45.113-10.389 8.838 0 17.733 1.072 26.468 3.182 8.587 2.144 16.889 5.006 24.837 8.587 7.903 3.638 15.429 8.142 22.442 13.433 6.888 5.325 12.977 11.073 18.075 16.98l2.475 2.897-0.593 3.718c-1.277 7.709-4.482 15.623-9.613 23.48zM299.471 476.281l3.661 2.452v406.767l-5.611 1.973c-7.321 2.589-16.41 3.889-27.027 3.889h-0.502c-11.176-0.057-20.162-1.46-27.426-4.311l-5.325-2.11v-424.808l7.914-0.559c0.935-0.057 1.916-0.057 2.931-0.057 6.819 0 15.064 1.494 24.552 4.482 10.583 3.33 19.591 7.469 26.833 12.282zM1023.373 196.14c-49.583 89.758-146.32 150.71-257.528 150.71-111.22 0-207.957-60.952-257.539-150.71-2.703-4.904-2.703-10.811 0-15.714 49.606-89.792 146.32-150.71 257.539-150.71 111.208 0 207.957 60.93 257.528 150.71 2.714 4.892 2.714 10.811 0 15.714zM765.845 66.651c-68.342 0-123.718 54.452-123.718 121.631s55.376 121.631 123.718 121.631c68.331 0 123.718-54.452 123.718-121.631s-55.399-121.631-123.718-121.631zM765.845 250.25c-5.211 0-10.252-0.616-15.098-1.768 4.961-5.668 7.937-12.977 7.937-21.005 0-17.767-14.642-32.181-32.683-32.181-8.199 0-15.657 2.954-21.393 7.834-1.186-4.755-1.802-9.739-1.802-14.836 0-34.234 28.213-62.002 63.039-62.002s63.039 27.756 63.039 62.002-28.213 61.956-63.039 61.956z" />
<glyph unicode="&#xe940;" glyph-name="logo-film1" horiz-adv-x="1071" d="M1019.45 81.693c-31.713 19.306-64.499 23.366-92.711 21.165 28.543 32.124 45.865 74.306 45.865 120.536 0 100.683-82.209 182.298-183.633 182.298s-183.633-81.616-183.633-182.298c0-100.705 82.209-182.287 183.633-182.287 26.24 0 51.191 5.474 73.759 15.304 0.753 0.239 6.238 2.851 7.23 3.341 20.287 9.397 80.19 31.713 134.916-1.642 6.534-4.003 15.11-1.973 19.147 4.539 4.025 6.534 1.984 15.019-4.573 19.044zM788.983 360.42c21.906 0 39.662-17.63 39.662-39.354 0-21.747-17.755-39.388-39.662-39.388-21.884 0-39.662 17.641-39.662 39.388 0 21.724 17.778 39.354 39.662 39.354zM659.825 267.253c6.762 20.675 29.113 31.987 49.948 25.282 20.823-6.705 32.238-28.92 25.441-49.606-6.762-20.675-29.113-31.987-49.959-25.282-20.834 6.74-32.227 28.931-25.43 49.606zM764.556 125.22c-12.898-17.584-37.689-21.496-55.41-8.712-17.721 12.795-21.633 37.415-8.769 54.988 12.875 17.584 37.655 21.473 55.376 8.69 17.733-12.761 21.644-37.381 8.804-54.965zM788.983 207.794c-8.678 0-15.714 6.979-15.714 15.612 0 8.598 7.036 15.589 15.714 15.589s15.714-6.979 15.714-15.589c0-8.633-7.036-15.612-15.714-15.612zM868.819 116.508c-17.733-12.795-42.513-8.872-55.376 8.712s-8.952 42.205 8.769 55c17.721 12.761 42.524 8.872 55.399-8.712s8.929-42.205-8.792-55zM892.699 217.647c-20.812-6.705-43.186 4.607-49.959 25.282-6.762 20.675 4.63 42.889 25.441 49.606 20.846 6.705 43.22-4.596 49.982-25.282 6.774-20.675-4.618-42.866-25.464-49.606zM889.608 577.203c-7.447 12.487-16.82 20.983-27.848 25.248-10.902 4.162-23.172 4.299-36.184 0.388-5.839-1.722-14.152-4.436-27.061-8.735-11.746-3.946-26.502-8.929-44.28-15.041l-3.375-1.152-4.299-9.499v-138.463c12.601 2.406 25.567 3.797 38.864 3.797 8.94 0 17.676-0.753 26.32-1.87v75.207c1.186 0.239 2.383 0.525 3.638 0.821l3.843 0.958c0 0 5.611 1.403 8.792 2.155 0.639 0.194 1.232 0.251 1.779 0.251 0.787 0 1.722-0.137 2.988-1.266 2.418-2.11 4.493-5.645 6.192-10.491 1.95-5.531 3.421-12.407 4.379-20.401 0.992-8.188 1.517-16.843 1.517-25.692 0-9.26-0.525-18.314-1.517-26.947-0.046-0.399-0.137-0.718-0.182-1.118 22.613-6.603 43.607-16.946 62.355-30.368 0.011 0.091 0.034 0.171 0.057 0.262 3.775 20.184 5.668 43.322 5.668 68.798 0 25.441-1.836 47.85-5.497 66.609-3.706 19.055-9.134 34.69-16.148 46.55zM614.062 647.176l0.217 19.888v25.441l63.701 11.962 1.152 5.223c1.87 8.633 2.828 18.052 2.828 27.996 0 10.195-0.958 18.896-2.874 26.65l-1.779 7.036-52.365-6.785c-3.797-0.49-7.367-0.992-10.651-1.482v20.070l-0.217 22.819 78.468 5.223 1.562 5.474c2.931 10.297 4.436 20.321 4.436 29.718 0 9.111-0.627 17.664-1.87 25.419l-1.072 6.876-138.999-0.912-5.861-8.735v-262.044c0-14.733 2.954-25.499 9.066-33.002 4.847-5.861 11.392-8.986 18.896-8.986 3.147 0 6.546 0.57 9.99 1.665l78.651 24.655c20.732 6.489 33.116 22.271 35.853 45.683 0.604 5.645 0.935 13.308 0.935 22.864v10.434l-78.685-19.956c-3.17-0.832-6.956-1.87-11.381-3.193zM754.886 635.977c10.161-6.899 21.929-10.377 35.021-10.377 9.009 0 18.816 1.665 29.17 4.983 14.494 4.573 27.859 11.449 39.685 20.355 11.689 8.598 21.804 19.112 30.014 31.189 8.165 11.837 14.471 25.305 18.748 40.072 4.299 14.54 6.454 30.813 6.454 48.431 0 17.664-2.189 33.39-6.511 46.664-4.39 13.696-10.845 25.521-19.204 35.089-8.598 9.967-19.124 17.584-31.132 22.625-12.213 5.28-25.898 7.937-40.643 7.937-15.087 0-28.817-2.988-40.893-8.895-12.19-6.135-22.648-15.395-31.12-27.563-8.188-11.997-14.505-26.947-18.816-44.474-4.219-17.311-6.352-37.438-6.352-59.812 0-53.266 11.883-88.925 35.363-106.042l0.217-0.182zM786.827 775.079c0.57 8.929 2.053 17.482 4.322 25.362 2.155 7.39 5.474 13.719 9.739 18.736 3.558 4.105 8.792 6.306 16.056 6.683 7.412 0.411 12.84-1.072 16.376-4.55 4.219-4.162 7.264-9.305 9.283-15.828 2.189-7.013 3.535-14.733 3.98-22.955 0.49-8.872 0.764-16.923 0.764-23.993 0-7.412-0.502-15.338-1.46-23.526-0.924-7.697-2.703-14.973-5.337-21.553-2.589-6.546-5.976-12.133-10.491-17.174-4.037-4.539-9.214-7.606-15.748-9.34-2.657-0.707-5.12-1.072-7.298-1.072-4.926 0-11.084 1.585-15.11 13.947-2.281 7.811-3.832 15.612-4.664 23.229-0.844 7.811-1.311 17.037-1.311 27.471 0.011 6.797 0.319 14.813 0.901 24.563zM79.803 418.989c4.459-4.197 10.32-6.329 17.413-6.329 4.573 0 9.727 0.912 15.361 2.714 11.62 3.649 23.503 8.712 35.34 15.041l3.672 1.973 56.037 428.047-3.284 8.849-1.927 1.414c-7.287 5.451-17.037 8.211-28.92 8.211h-0.331c-8.815-0.023-16.33-1.642-22.271-4.824l-3.809-2.030-31.554-287.052c-1.95 20.264-3.866 37.871-5.702 52.696l-22.773 183.724c-2.304 18.93-5.531 32.592-9.853 41.794-6.694 14.243-17.698 17.231-25.863 17.231-9.34-0.057-19.831-5.998-32.147-18.189l-2.794-2.737 49.572-401.373c2.84-20.435 7.218-32.865 13.833-39.16zM291.648 475.517l3.615 2.383v395.672l-5.474 1.916c-7.127 2.52-15.999 3.775-26.308 3.775h-0.49c-10.879-0.057-19.614-1.425-26.673-4.185l-5.177-2.053v-413.233l7.697-0.547c0.935-0.057 1.859-0.057 2.851-0.057 6.637 0 14.654 1.448 23.879 4.356 10.297 3.261 19.067 7.287 26.080 11.974zM683.682 555.867c-9.978 0.228-21.667-1.642-34.815-5.588-12.84-3.889-24.187-8.815-33.766-14.688l-3.261-1.996-18.93-136.638c-1.642-13.536-3.113-25.556-4.379-36.070-1.197 9.533-2.577 20.082-4.048 31.497l-19.124 126.295-7.173-0.057c-9.978-0.114-21.587-2.144-34.507-6.021-12.681-3.809-23.993-8.553-33.629-14.163l-3.809-2.189-16.729-332.461 5.474-2.132c7.173-2.828 15.942-4.219 25.966-4.219h0.547c9.91 0.023 18.348 0.981 25.031 2.851l5.77 1.585 4.79 141.758c0.388 9.978 0.661 19.523 0.958 28.737l18.075-119.385 5.451-1.232c5.006-1.118 10.583-1.654 16.398-1.893-0.285 4.504-0.684 8.986-0.684 13.559 0 84.353 49.252 156.914 120.194 190.441l-6.124 141.838-7.675 0.171zM377.095 464.752c-7.914-0.194-18.075-2.144-31.006-6.021-10.902-3.261-20.698-7.070-29.193-11.312l-3.341-1.665-69.015-275.523 4.242-8.131 2.657-1.175c7.173-3.182 15.999-4.71 26.924-4.71h0.354c9.75 0.023 17.311 0.958 23.115 2.817l4.436 1.425 12.772 55.798c1.859 0.103 3.889 0.217 6.181 0.354l43.493 2.931c1.756 0.114 3.341 0.239 4.767 0.388l4.299-20.572c3.364-15.919 7.538-26.65 12.681-32.842 5.918-7.127 15.555-10.708 28.589-10.708h0.228c10.902 0.023 20.755 3.558 29.421 10.491l3.889 3.17-68.718 295.434-6.774-0.148zM357.321 287.711l-23.001-2.817 4.55 20.675c3.17 16.022 5.861 30.128 8.097 42.091 3.296-16.239 9.066-43.3 9.066-43.3l3.387-16.455c-0.901-0.080-2.098-0.194-2.098-0.194zM226.408 223.463c-4.926 7.504-10.457 13.422-16.398 17.562l-5.474 3.786-4.904-4.436c-9.499-8.598-18.405-15.007-26.399-19.010-7.663-3.752-14.562-5.804-20.538-6.158-10.628-0.661-18.189 2.954-23.822 11.529-6.192 9.203-9.362 24.677-9.362 45.9 0 21.941 2.657 39.217 7.937 51.465 4.71 11.096 12.031 17.721 22.294 20.298 2.52 0.627 4.847 0.958 6.899 0.958 4.071 0 16.455 0 16.455-35.089v-11.255l7.287-0.855c7.811-0.878 14.905-0.764 21.12 0.354 15.84 2.828 34.678 12.898 34.678 44.942 0 11.666-2.144 22.237-6.409 31.463-4.436 9.419-10.879 16.98-19.227 22.431-8.188 5.28-18.132 8.347-29.581 9.146-10.925 0.661-23.115-1.038-36.366-5.097-12.818-3.889-25.122-10.195-36.423-18.599-11.347-8.245-21.279-18.428-29.558-30.208-8.302-11.586-14.95-25.008-19.797-39.935-4.79-14.733-7.253-31.337-7.253-49.378 0-13.855 1.562-27.255 4.687-39.799 3.147-13.069 8.404-24.78 15.612-34.838 7.344-10.457 17.094-19.033 28.897-25.419 12.133-6.683 26.867-10.104 43.87-10.104 8.633 0 17.288 1.038 25.772 3.090 8.325 2.075 16.433 4.869 24.13 8.347 7.697 3.535 15.007 7.914 21.827 13.069 6.683 5.211 12.601 10.765 17.584 16.512l2.406 2.828-0.57 3.615c-1.277 7.549-4.39 15.247-9.374 22.887zM484.951 558.581c13.536 20.766 22.784 43.824 27.437 68.559 4.607 24.016 6.956 52.092 6.956 83.452 0 22.898-1.425 44.474-4.219 64.088-2.851 20.162-7.834 37.985-14.848 53.015-7.173 15.691-17.094 28.372-29.307 37.575-12.647 9.727-28.338 14.654-46.721 14.654h-0.411c-13.753-0.080-26.924-0.274-39.137-0.684-12.487-0.445-24.586-1.038-35.876-1.779l-4.573-0.296-5.234-9.499v-366.376l6.74-10.047 5.839 1.585c16.353 4.47 30.972 8.496 43.414 12.054 12.647 3.615 20.869 6.055 26.673 7.88 13.091 4.105 25.305 10.081 36.207 17.698 11.119 7.606 20.241 17.14 27.061 28.121zM421.455 592.541l-16.672-4.322c-0.741-0.217-1.505-0.388-2.212-0.604v212.028c1.528 0.023 3.17 0.137 4.812 0.228l16.706 1.015c0.376 0 0.764 0.023 1.152 0.023 18.782 0 29.113-34.838 29.113-98.083 0-84.125-17.881-106.396-32.899-110.284z" />
<glyph unicode="&#xe941;" glyph-name="logout1" horiz-adv-x="1071" d="M745.501 542.707h-420.452c-52.331 0-94.776-42.387-94.776-94.719 0-52.343 42.444-94.787 94.776-94.787h420.452c52.388 0 94.741 42.456 94.741 94.787-0.011 52.331-42.364 94.719-94.741 94.719zM535.286 926.941c-264.085 0-478.952-214.924-478.952-478.952 0-264.108 214.867-478.941 478.952-478.941 264.005 0 478.941 214.833 478.941 478.941 0 264.028-214.936 478.952-478.941 478.952zM535.286 95.331c-194.455 0-352.612 158.088-352.612 352.657 0 194.455 158.157 352.612 352.612 352.612 194.432 0 352.657-158.157 352.657-352.612 0-194.557-158.225-352.657-352.657-352.657z" />
<glyph unicode="&#xe942;" glyph-name="media1" horiz-adv-x="933" d="M656.316-64c-93.98 0-177.175 47.627-227.191 120.24 0 0-299.668 0-299.668 0-71.384 0-129.456 58.687-129.456 130.822 0 0 0 657.909 0 657.909 0 63.442 51.063 115.029 113.823 115.029 0 0 492.407 0 492.407 0 23.802 0 43.145-19.57 43.145-43.6 0-24.053-19.342-43.622-43.145-43.622 0 0-492.407 0-492.407 0-15.178 0-27.511-12.47-27.511-27.807 0-15.314 12.334-27.785 27.511-27.785 0 0 451.493 0 451.493 0 71.384 0 129.456-58.709 129.456-130.844 0 0 0-193.946 0-193.946 134.417-18.955 238.205-135.873 238.205-276.844 0-154.146-124.109-279.552-276.662-279.552zM185.572 680.562c0 19.274-15.474 34.907-34.52 34.907-19.069 0-34.543-15.633-34.543-34.907 0 0 0-453.928 0-453.928 0-19.251 15.474-34.884 34.543-34.884 19.046 0 34.52 15.633 34.52 34.884 0 0 0 453.928 0 453.928zM656.316 432.458c-118.352 0-214.63-97.303-214.63-216.906 0-119.58 96.279-216.883 214.63-216.883s214.653 97.303 214.653 216.883c0 119.603-96.302 216.906-214.653 216.906zM656.316 113.106c-55.979 0-101.376 45.875-101.376 102.446 0 56.593 45.397 102.446 101.376 102.446 56.001 0 101.376-45.852 101.376-102.446 0-56.57-45.375-102.446-101.376-102.446zM656.316 257.9c-23.142 0-41.893-18.955-41.893-42.348 0-23.37 18.751-42.325 41.893-42.325s41.916 18.955 41.916 42.325c0 23.393-18.773 42.348-41.916 42.348z" />
<glyph unicode="&#xe943;" glyph-name="menu1" horiz-adv-x="1071" d="M183.040 556.032h-140.672c-23.424 0-42.368-18.112-42.368-40.576v-134.912c0-22.4 18.944-40.64 42.368-40.64h140.672c23.36 0 42.368 18.24 42.368 40.64v134.912c-0.064 22.4-19.072 40.576-42.368 40.576zM183.040 184.256h-140.672c-23.424 0-42.368-18.24-42.368-40.768v-134.784c0-22.528 18.944-40.704 42.368-40.704h140.672c23.36 0 42.368 18.176 42.368 40.704v134.784c-0.064 22.528-19.072 40.768-42.368 40.768zM183.040 928h-140.672c-23.424 0-42.368-18.24-42.368-40.576v-134.976c0-22.336 18.944-40.576 42.368-40.576h140.672c23.36 0 42.368 18.24 42.368 40.576v134.976c-0.064 22.208-19.072 40.576-42.368 40.576zM981.568 928h-628.608c-23.296 0-42.304-18.24-42.304-40.576v-134.976c0-22.336 18.944-40.576 42.304-40.576h628.608c23.488 0.064 42.432 18.24 42.432 40.576v134.976c0 22.208-18.944 40.576-42.432 40.576zM981.568 556.032h-628.608c-23.296 0-42.304-18.176-42.304-40.576v-134.912c0-22.4 18.944-40.64 42.304-40.64h628.608c23.488 0.064 42.432 18.304 42.432 40.64v134.912c0 22.4-18.944 40.576-42.432 40.576zM981.568 184.256h-628.608c-23.296 0-42.304-18.24-42.304-40.768v-134.784c0-22.528 18.944-40.704 42.304-40.704h628.608c23.488 0 42.432 18.176 42.432 40.704v134.784c0 22.528-18.944 40.768-42.432 40.768z" />
<glyph unicode="&#xe944;" glyph-name="mini-arrow-down1" horiz-adv-x="1536" d="M692.992-27.648c0 0-651.52 763.392-651.52 763.392-41.472 48.384-41.472 127.232 0 175.616 41.472 48.64 108.544 48.64 150.016 0 0 0 1153.024 0 1153.024 0 41.472 48.64 108.544 48.64 150.016 0 41.472-48.384 41.472-127.232 0-175.616 0 0-651.52-763.392-651.52-763.392-20.736-24.32-47.872-36.352-75.008-36.352s-54.272 12.288-75.008 36.352z" />
<glyph unicode="&#xe945;" glyph-name="movie1" horiz-adv-x="1071" d="M1042.611 101.775c-78.959 47.211-160.597 57.178-230.855 51.761 71.079 78.48 114.264 181.557 114.264 294.43 0 245.999-204.764 445.391-457.331 445.391-252.522-0.011-457.285-199.392-457.285-445.391 0-245.919 204.764-445.312 457.285-445.312 65.354 0 127.47 13.365 183.69 37.404 1.859 0.593 15.532 7.002 17.984 8.142 50.529 22.967 199.666 77.453 335.951-3.991 16.33-9.762 37.678-4.79 47.724 11.107 10.001 15.897 4.892 36.685-11.426 46.458zM468.689 782.765c54.566 0 98.767-43.049 98.767-96.155 0-53.141-44.2-96.201-98.767-96.201-54.521 0-98.721 43.060-98.721 96.201-0.011 53.095 44.2 96.155 98.721 96.155zM147.016 555.148c16.843 50.529 72.55 78.16 124.425 61.716 51.875-16.364 80.259-70.611 63.416-121.141s-72.595-78.16-124.425-61.716c-51.875 16.364-80.259 70.645-63.416 121.141zM407.839 208.125c-32.067-42.935-93.818-52.468-137.938-21.234-44.132 31.189-53.894 91.332-21.861 134.301 32.067 42.946 93.829 52.468 137.95 21.268 44.109-31.178 53.871-91.354 21.849-134.335zM468.689 409.889c-21.587 0-39.137 17.037-39.137 38.077 0 21.074 17.55 38.157 39.137 38.157 21.621 0 39.183-17.083 39.183-38.157 0-21.040-17.562-38.077-39.183-38.077zM667.523 186.857c-44.121-31.2-105.883-21.667-137.95 21.268-32.021 42.98-22.26 103.146 21.861 134.346s105.883 21.667 137.904-21.268c32.067-42.98 22.305-103.112-21.815-134.346zM726.981 433.962c-51.875-16.41-107.582 11.233-124.425 61.762s11.54 104.777 63.381 121.141c51.909 16.444 107.627-11.187 124.471-61.716 16.832-50.495-11.552-104.777-63.427-121.186z" />
<glyph unicode="&#xe946;" glyph-name="new-tab1" d="M913.067 192v-145.067h-802.133v802.133h145.067v110.933h-145.067c-59.733 0-110.933-51.2-110.933-110.933v-793.6c0-68.267 51.2-119.467 110.933-119.467h793.6c59.733 0 110.933 51.2 110.933 110.933v145.067h-102.4zM477.867 849.067h358.4l-332.8-332.8c-17.067-17.067-25.6-59.733 0-76.8 17.067-17.067 51.2-17.067 76.8 0l332.8 332.8v-358.4c0-25.6 25.6-51.2 51.2-51.2 17.067 0 25.6 8.533 34.133 17.067s17.067 25.6 17.067 34.133v486.4c8.533 34.133-17.067 59.733-42.667 59.733h-494.933c-25.6 0-51.2-25.6-51.2-59.733 0-25.6 25.6-51.2 51.2-51.2z" />
<glyph unicode="&#xe947;" glyph-name="star-outline1" horiz-adv-x="1071" d="M534.636 772.912l60.781-148.897c20.23-47.656 64.51-80.122 114.96-84.74l184.203-17.653-138.337-122.771c-37.974-33.937-54.658-85.892-43.117-136.604l39.308-164.965-146.719 87.158c-21.393 12.555-45.706 19.215-70.417 19.215-24.643 0-48.979-6.66-70.828-19.432l-145.966-86.702 39.993 165.934c11.141 49.686-5.474 101.561-43.562 135.589l-138.292 122.76 182.39 17.391c52.502 4.881 98.345 39.571 115.929 86.337l59.675 147.38zM534.477 935.209c-18.234 0-36.446-10.115-44.451-30.345l-99.291-245.212c-6.386-16.991-22.408-28.349-40.015-29.946l-279.423-26.719c-41.657-4.037-58.478-56.608-27.243-85.014l210.568-186.917c13.616-12.156 19.215-29.946 15.212-47.747l-63.222-262.204c-7.538-32.386 17.904-60.245 46.983-60.245 8.040 0 16.307 2.087 24.267 6.842l233.010 138.372c7.606 4.493 16.011 6.705 24.427 6.705s16.798-2.212 24.358-6.705l233.067-138.372c7.983-4.801 16.41-6.922 24.575-6.922 28.931 0 54.213 27.414 46.675 60.337l-62.469 262.204c-4.003 17.801 1.597 35.579 15.258 47.747l210.568 186.917c30.436 28.395 12.772 80.977-28.84 85.014l-279.412 26.707c-17.664 1.597-32.831 12.955-40.118 29.946l-100.055 245.212c-7.983 20.219-26.194 30.345-44.429 30.345v0z" />
<glyph unicode="&#xe948;" glyph-name="tail-arrow1" horiz-adv-x="1638" d="M172.442 874.701c0 0 0-341.402 0-341.402s1138.278 0 1138.278 0c0 0-310.477 307.2-310.477 307.2s120.73 119.501 120.73 119.501c0 0 517.427-512 517.427-512s-517.427-512-517.427-512c0 0-120.73 119.501-120.73 119.501s310.477 307.2 310.477 307.2c0 0-1310.72 0-1310.72 0s0 512 0 512c0 0 172.442 0 172.442 0z" />
<glyph unicode="&#xe949;" glyph-name="ticket1" horiz-adv-x="1000" d="M963.535 466.139c-7.387-12.117-17.725-21.65-29.867-28.306-17.262 60.562-72.363 105.399-137.509 105.399 0 0-571.782 0-571.782 0-20.456 60.611-84.139 97.768-147.822 82.164 0 0-11.581 49.786-11.581 49.786-4.827 20.724-1.341 42.691 9.679 60.855 11.045 18.115 28.696 31.037 49.176 35.962 0 0 673.134 161.499 673.134 161.499 42.569 10.216 85.211-16.579 95.281-59.733 0 0 12.264-52.809 12.264-52.809-67.413-15.604-109.178-85.090-93.233-153.527s83.529-110.519 151.016-94.866c0 0 10.874-46.251 10.874-46.251 4.876-20.724 1.365-42.057-9.63-60.172zM796.136 476.721c43.764 0 78.409-35.279 78.409-79.628 0 0 0-54.174 0-54.174-69.437 0-125.538-57.027-125.538-127.342 0-70.29 56.101-127.342 125.538-127.342 0 0 0-48.006 0-48.006 0-44.373-34.645-79.896-78.385-79.896 0 0-691.761 0-691.761 0-43.715 0-80.043 35.523-80.043 79.896 0 0 0 51.102 0 51.102 69.413 0 125.513 56.978 125.513 127.317s-56.101 127.366-125.513 127.366c0 0 0 51.078 0 51.078 0 44.349 36.328 79.628 80.043 79.628 0 0 691.736 0 691.736 0z" />
<glyph unicode="&#xe94a;" glyph-name="twitter2" horiz-adv-x="1317" d="M1261.641 797.111c-44.69-19.529-92.672-32.695-143.214-38.546 51.493 30.281 90.99 78.336 109.641 135.607-48.201-28.087-101.522-48.567-158.354-59.538-45.495 47.689-110.299 77.458-182.126 77.458-137.728 0-249.271-109.787-249.271-245.248 0-19.163 2.194-37.888 6.437-55.881-207.287 10.24-391.022 107.886-514.048 256.293-21.431-36.279-33.719-78.409-33.719-123.319 0-85.138 44.032-160.11 110.885-204.142-40.814 1.317-79.287 12.288-112.933 30.647 0-1.024 0-2.121 0-3.072 0-118.857 85.943-217.966 200.046-240.494-20.919-5.559-42.935-8.558-65.755-8.558-16.091 0-31.671 1.536-46.885 4.389 31.744-97.426 123.831-168.302 232.96-170.35-85.285-65.755-192.805-104.96-309.687-104.96-20.114 0-40.009 1.097-59.465 3.438 110.299-69.559 241.371-110.153 382.245-110.153 458.679 0 709.486 373.614 709.486 697.783 0 10.533-0.293 21.138-0.731 31.671 48.786 34.597 90.99 77.751 124.489 126.976z" />
<glyph unicode="&#xe94b;" glyph-name="two-way-arrow1" d="M825.92 520.768c-5.696-5.824-13.12-8.768-20.608-8.768s-14.912 2.944-20.608 8.768c-11.392 11.776-11.392 30.784 0 42.56 0 0 136.832 141.12 136.832 141.12s-892.352 0-892.352 0c-16.128 0-29.184 13.44-29.184 30.080 0 16.576 13.056 30.080 29.184 30.080 0 0 892.352 0 892.352 0s-136.832 141.12-136.832 141.12c-11.392 11.776-11.392 30.784 0 42.496 11.392 11.776 29.824 11.776 41.216 0 0 0 186.688-192.448 186.688-192.448 11.392-11.712 11.392-30.784 0-42.496 0 0-186.688-192.512-186.688-192.512zM198.080 372.288c11.392 11.712 29.824 11.712 41.216 0 11.392-11.776 11.392-30.784 0-42.56 0 0-136.832-141.12-136.832-141.12s892.352 0 892.352 0c16.128 0 29.184-13.44 29.184-30.080 0-16.576-13.056-30.080-29.184-30.080 0 0-892.352 0-892.352 0s136.832-141.12 136.832-141.12c11.392-11.712 11.392-30.784 0-42.56-5.696-5.824-13.12-8.768-20.608-8.768s-14.912 2.944-20.608 8.768c0 0-186.688 192.512-186.688 192.512-11.392 11.712-11.392 30.72 0 42.496 0 0 186.688 192.512 186.688 192.512z" />
<glyph unicode="&#xe94c;" glyph-name="vimeo1" horiz-adv-x="1339" d="M1144.044 960c129.575-3.23 194.324-73.019 195.033-209.447 0-8.98-0.394-18.196-0.866-27.806-5.75-115.712-96.492-273.25-272.699-472.773-181.721-208.896-335.793-313.502-462.375-313.974-78.769 0-144.148 63.961-196.687 191.882 0 0-55.060 175.419-55.060 175.419s-54.508 175.262-54.508 175.262c-40.172 126.897-83.023 190.228-128.866 190.228-10.004 0-44.741-18.511-104.369-55.375 0 0-63.646 71.286-63.646 71.286s98.698 77.745 98.698 77.745c0 0 97.044 76.958 97.044 76.958 86.882 66.009 153.049 101.691 198.341 106.969 6.065 0.63 12.052 0.788 18.196 0.788 93.105 0 151.237-63.409 174.001-190.306 12.761-72.31 23.316-131.151 31.823-176.364 8.271-45.292 15.281-76.879 20.795-94.838 30.72-119.966 63.882-180.303 99.486-180.775 27.412 0 69.553 39.070 126.425 117.287 55.611 80.345 85.543 139.894 89.482 178.649 1.182 7.877 1.575 15.202 1.575 21.977 0 52.46-30.405 78.612-91.057 78.612-30.72 0-63.567-6.223-98.698-18.196 62.937 184.005 183.926 276.165 362.89 276.795 5.041 0 10.004 0 15.045 0z" />
<glyph unicode="&#xe94d;" glyph-name="world1" d="M632.192-49.152c0 0 9.344 33.856 9.344 33.856s87.872 58.624 87.872 58.624c0 0 23.104 62.848 23.104 62.848s60.736 28.224 60.736 28.224c0 0 57.536 109.952 57.536 109.952s-89.024 52.288-89.024 52.288c0 0-46.016 52.352-46.016 52.352s-27.264 3.136-27.264 3.136c0 0-54.4 14.656-54.4 14.656s-46.912 7.424-46.912 7.424c0 0-41.024-11.52-41.024-11.52s-25.152 28.16-25.152 28.16c0 0-25.152 7.36-25.152 7.36s2.112 37.632 2.112 37.632c0 0-30.4-0.96-30.4-0.96s-17.28-19.904-17.28-19.904c0 0-9.856 41.856-9.856 41.856s39.68 18.88 39.68 18.88c0 0 40.896-18.88 40.896-18.88s21.952 0 21.952 0c0 0 7.936 32.448 7.936 32.448s61.184 73.344 61.184 73.344c0 0 84.864 42.88 84.864 42.88s49.152-6.272 49.152-6.272c0 0 4.48 24 4.48 24s-60.928 61.824-60.928 61.824c0 0-23.040 46.016-23.040 46.016s-33.536 0-33.536 0c0 0-20.992 12.224-20.992 12.224s-44.992 6.72-44.992 6.72c0 0-9.408-53.568-9.408-53.568s-54.528 10.56-54.528 10.56c0 0-4.16 33.472-4.16 33.472s41.856 9.472 41.856 9.472c0 0 13.824 60.032 13.824 60.032s41.472-17.152 41.472-17.152c0 0-1.024-25.472-1.024-25.472s31.68-13.184 31.68-13.184c0 0 21.12-6.272 21.12-6.272s25.984 13.568 25.984 13.568c0 0-23.104 27.2-23.104 27.2s-47.168 46.016-47.168 46.016c0 0 1.088 22.016 1.088 22.016s48.192-9.408 48.192-9.408c0 0 40.832-36.608 40.832-36.608s12.544-32.448 12.544-32.448c0 0 9.472-30.464 9.472-30.464s64.96-58.496 64.96-58.496c0 0 16.64-5.312 16.64-5.312s23.104 36.8 23.104 36.8c0 0 81.6 7.232 81.6 7.232s15.296 4.864 15.296 4.864c54.784-81.344 86.656-179.456 86.656-284.864 0-241.28-167.168-443.072-391.808-497.152zM661.376 915.584c0 0-35.52-23.68-35.52-23.68s-25.152-27.776-25.152-27.776c0 0-91.52-8.576-91.52-8.576s-37.632 6.208-37.632 6.208c0 0-25.856-40.576-25.856-40.576s-75.328-4.224-75.328-4.224c0 0-47.168 13.568-47.168 13.568s-41.92-22.912-41.92-22.912c0 0-91.008-12.672-91.008-12.672s-72.896-21.056-72.896-21.056c0 0-0.256 0-0.256 0 93.824 113.664 235.904 186.112 394.88 186.112 78.080 0 151.744-18.048 217.984-49.216 0 0-18.368-2.752-18.368-2.752s-50.24 7.552-50.24 7.552zM432.064 904.896c0 0-30.272-9.6-30.272-9.6s-23.040 9.6-23.040 9.6c-0.768-6.080-33.536-27.264-33.536-27.264s33.536-19.584 33.536-19.584c0 0 69.76 18.304 69.76 18.304s-16.448 28.544-16.448 28.544zM585.984 937.856c0 0-52.352-28.8-52.352-28.8s-30.016-18.688-30.016-18.688c0 0 20.864-13.568 20.864-13.568s46.4 4.672 46.4 4.672c0 0 48.64 36.992 48.64 36.992s-33.536 19.392-33.536 19.392zM99.2 666.24c0 0 57.472 0 57.472 0s85.44 15.232 85.44 15.232c0 0 53.824-87.424 53.824-87.424s0-81.664 0-81.664c0 0 73.408-99.52 73.408-99.52s12.416 0 12.416 0c0 0 0 35.072 0 35.072s28.288-59.136 28.288-59.136c0 0 85.12-19.072 85.12-19.072s38.464-38.592 38.464-38.592c0 0 34.24-10.24 34.24-10.24s-34.24-71.36-34.24-71.36c0 0 37.312-69.12 37.312-69.12s23.424-79.552 23.488-82.688c0-3.136-23.488-95.232-23.488-95.232s5.376-62.080 5.376-62.080c-21.184-2.56-42.56-4.416-64.32-4.416-282.752 0-512 229.248-512 511.936 0 94.272 25.856 182.208 70.272 258.048 0 0 36.864 8.576 36.864 8.576s-36.928-29.376-36.928-29.376c0 0 28.992-18.944 28.992-18.944z" />
<glyph unicode="&#xe94e;" glyph-name="youtube1" horiz-adv-x="1229" d="M1105.92 934.4c-36.864 12.766-264.192 25.6-491.52 25.6s-454.656-12.834-491.52-25.6c-98.304-32.017-122.88-256-122.88-486.4s24.576-454.451 122.88-486.4c36.864-12.834 264.192-25.6 491.52-25.6s454.656 12.766 491.52 25.6c98.304 31.949 122.88 256 122.88 486.4s-24.576 454.383-122.88 486.4zM491.52 159.983c0 0 0 575.966 0 575.966s368.64-287.949 368.64-287.949c0 0-368.64-288.017-368.64-288.017z" />
<glyph unicode="&#xe94f;" glyph-name="report1" horiz-adv-x="1161" d="M1160.533-64c0 0 0 1024 0 1024s-1160.533 0-1160.533 0c0 0 0-1024 0-1024s1160.533 0 1160.533 0zM164.318 735.198c0 0 369.391 0 369.391 0s0-124.86 0-124.86c0 0-369.391 0-369.391 0s0 124.86 0 124.86zM164.318 485.478c0 0 369.391 0 369.391 0s0-124.86 0-124.86c0 0-369.391 0-369.391 0s0 124.86 0 124.86zM1012.599 110.831c0 0-848.282 0-848.282 0s0 124.86 0 124.86c0 0 848.282 0 848.282 0s0-124.86 0-124.86zM1012.599 360.619c0 0-309.862 0-309.862 0s0 374.579 0 374.579c0 0 309.862 0 309.862 0s0-374.579 0-374.579z" />
<glyph unicode="&#xe950;" glyph-name="player-thin1" d="M512-64.011c-282.795 0-512 229.217-512 512.011s229.205 512 512 512c282.783 0 512-229.205 512-512s-229.217-512.011-512-512.011zM512 914.489c-257.638 0-466.489-208.85-466.489-466.489s208.85-466.489 466.489-466.489c257.638 0 466.489 208.85 466.489 466.489s-208.85 466.489-466.489 466.489zM636.735 425.165c0 0-169.677-116.725-169.677-116.725-4.722-3.231-10.206-4.881-15.724-4.881-4.426 0-8.829 1.047-12.88 3.163-9.114 4.824-14.837 14.268-14.837 24.553 0 0 0 233.449 0 233.449 0 10.274 5.723 19.729 14.837 24.553 9.102 4.767 20.116 4.119 28.604-1.718 0 0 169.677-116.725 169.677-116.725 7.498-5.166 12.004-13.722 12.004-22.835s-4.494-17.67-12.004-22.835z" />
<glyph unicode="&#xe951;" glyph-name="thumb-down1" d="M0 354.909h186.182v558.545h-186.182v-558.545zM1024 401.453h-4.656v93.091c0 9.311 0 23.273-4.655 32.584l-139.635 330.473c-13.962 32.582-46.545 55.855-83.78 55.855h-418.911c-51.2 0-93.091-41.891-93.091-93.091v-465.455c0-27.927 9.309-51.2 27.927-65.164l307.2-307.2 51.202 46.545c9.309 13.964 18.616 32.582 18.616 51.2 0 4.655 0 9.311 0 13.964l-46.545 214.109h293.236c51.2 0 93.091 41.891 93.091 93.089 0 0.002 0 4.656 0 0z" />
<glyph unicode="&#xe952;" glyph-name="thumb-up1" d="M0-17.455h186.182v558.545h-186.182v-558.545zM1024 494.545c0 51.2-41.891 93.091-93.091 93.091h-293.236l46.545 214.109c0 4.655 0 9.309 0 13.964 0 18.618-9.309 37.236-18.616 51.2l-51.202 46.545-307.2-307.2c-18.618-13.964-27.927-37.236-27.927-65.164v-465.455c0-51.2 41.891-93.091 93.091-93.091h418.909c37.236 0 69.818 23.273 83.782 55.855l139.636 330.475c4.655 9.309 4.655 23.273 4.655 32.582v93.091h4.655c0-4.656 0-0.002 0-0.002z" />
<glyph unicode="&#xe953;" glyph-name="audio-description1" d="M726.976 96c0 0 218.88 113.92 218.88 352s-226.752 352-226.752 352 304.896-47.424 304.896-343.616c0-296.128-297.024-360.384-297.024-360.384zM883.328 448c0-265.6-257.92-268.096-257.92-268.096s171.968 80.256 171.968 268.096c0 187.84-171.968 268.224-171.968 268.224s257.92-2.624 257.92-268.224zM711.36 448c0-158.848-156.352-176-156.352-176h-195.456v352h203.264c0 0 148.544-17.088 148.544-176zM468.992 540.224v-184.32c0 0 132.864-19.264 132.864 92.096s-132.864 92.224-132.864 92.224zM242.304 347.52h-125.056l-39.104-75.52h-78.144v33.472l179.776 318.528h101.632l54.72-352h-86.016l-7.808 75.52zM226.688 548.608h-15.616l-62.528-134.080h85.952l-7.808 134.080z" />
<glyph unicode="&#xe954;" glyph-name="close-caption1" d="M964.544 789.184c-95.488 95.36-800.832 103.936-905.088 0-79.488-79.296-79.040-643.264 0-709.376s843.968-61.056 905.088 0c61.248 61.056 95.616 614.016 0 709.376zM279.872 167.296c-155.456 0-243.648 121.536-243.648 279.040 0 167.808 95.552 278.912 243.648 278.912 131.904-0.704 204.544-77.568 217.408-211.072h-144.064c-2.688 19.392-16.128 78.336-77.376 78.336-69.312 0-91.584-74.624-91.584-146.176 0-71.616 22.272-146.24 91.584-146.24 49.792 0 69.312 38.784 78.080 88.768h145.344c-0.064-107.392-78.784-221.568-219.392-221.568zM773.568 167.296c-155.392 0-243.648 121.536-243.648 279.040 0 167.808 95.488 278.912 243.648 278.912 131.904-0.704 204.608-77.568 217.344-211.072h-144c-2.752 19.392-16.128 78.336-77.376 78.336-69.376 0-91.648-74.624-91.648-146.176 0-71.616 22.272-146.24 91.648-146.24 49.728 0 69.248 38.784 78.144 88.768h145.28c0-107.392-78.656-221.568-219.392-221.568z" />
<glyph unicode="&#xe955;" glyph-name="info1" d="M505.6 959.936c-282.688-3.776-508.736-236.096-504.96-518.848 3.776-282.624 235.968-508.8 518.656-505.024 282.624 3.776 508.736 236.096 504.96 518.848-3.776 282.624-236.032 508.8-518.656 505.024zM562.368 789.312c52.032 0 67.392-30.208 67.392-64.704 0-43.136-34.56-83.008-93.44-83.008-49.28 0-72.768 24.768-71.36 65.728 0 34.56 28.928 81.984 97.408 81.984zM428.928 128c-35.52 0-61.568 21.568-36.736 116.48 0 0 40.832 168.384 40.832 168.384 7.104 26.944 8.256 37.76 0 37.76-10.688 0-56.832-18.624-84.096-36.992 0 0-17.792 29.12-17.792 29.12 86.528 72.256 185.984 114.624 228.608 114.624 35.52 0 41.472-42.048 23.744-106.752 0 0-46.72-176.96-46.72-176.96-8.32-31.296-4.736-42.048 3.52-42.048 10.688 0 45.632 12.928 80 39.936 0 0 20.096-27.008 20.096-27.008-84.096-84.16-175.872-116.544-211.456-116.544z" />
</font>
</defs>
</svg>
